<?xml version="1.0" encoding="UTF-8"?>
<svg version="1.1" xmlns="http://www.w3.org/2000/svg" width="500" height="500">
<path d="M0 0 C3.15696409 1.36323449 4.61385591 2.35057585 6.375 5.3125 C7.15024358 8.64604738 6.97718613 10.71944656 6 14 C4.375 16.3125 4.375 16.3125 2 18 C-0.32522135 18.38587721 -2.6591402 18.72444424 -5 19 C-10.24272125 31.6541941 -14.81947287 44.52334838 -19.375 57.4375 C-20.1182107 59.53720811 -20.86169837 61.6368182 -21.60546875 63.73632812 C-23.40683503 68.82309512 -25.20479936 73.911054 -27 79 C-13.81109917 77.73657726 -3.55614543 70.03476026 7.14990234 62.73999023 C9.2801604 61.2919992 11.42267096 59.86348764 13.56640625 58.43554688 C14.92524806 57.51676113 16.2833505 56.59688072 17.640625 55.67578125 C18.60128876 55.03821648 18.60128876 55.03821648 19.58135986 54.38777161 C21.1097948 53.33492589 22.56372302 52.17545986 24 51 C24 47.86474544 23.47240091 46.46496208 22.21484375 43.6484375 C21.84939453 42.79636719 21.48394531 41.94429687 21.10742188 41.06640625 C20.33540484 39.29038042 19.55175983 37.51935818 18.75585938 35.75390625 C16.33755898 30.0441492 15.0240212 25.08597977 17 19 C17.66 18.67 18.32 18.34 19 18 C19.61089478 19.30481323 19.61089478 19.30481323 20.23413086 20.63598633 C21.78849406 23.95563505 23.34332961 27.27506234 24.89837646 30.59439087 C25.58924209 32.06911 26.28003837 33.54386161 26.97076416 35.01864624 C31.44061795 44.56132879 35.91888529 54.09963857 40.47241211 63.6027832 C42.56656648 67.99435268 44.1462973 71.55085939 44.1875 76.4375 C44.20167969 77.19933594 44.21585937 77.96117187 44.23046875 78.74609375 C43.96591487 81.33334104 43.45243898 82.84195975 42 85 C39.01557572 87.0389278 36.5631725 87.24724832 33 87.1875 C32.154375 87.18105469 31.30875 87.17460937 30.4375 87.16796875 C28 87 28 87 25.8046875 86.4296875 C23.93666279 85.78080147 23.93666279 85.78080147 22.125 86.9375 C19.19456863 88.40271569 17.24119455 88.39688097 14 88 C11.30009338 86.20006226 9.4581135 84.916227 8 82 C7.50732943 77.64807662 7.48247571 75.70017992 10.125 72.125 C13.32915727 69.75670984 15.02790584 69 19 69 C21.87872577 70.3739373 23.74989437 71.74989437 26 74 C26.33 75.32 26.66 76.64 27 78 C30.3 78.66 33.6 79.32 37 80 C36.71403693 73.70881244 34.2171945 69.08730357 31.27734375 63.57421875 C30 61 30 61 30 59 C18.83908101 63.96345537 8.83477791 71.05386745 -1.25390625 77.8671875 C-1.92719971 78.3206958 -2.60049316 78.7742041 -3.29418945 79.24145508 C-4.56293779 80.0984264 -5.82860722 80.95998067 -7.09057617 81.8269043 C-12.71768878 85.63866626 -16.7380677 87.2887766 -23.5625 87.3125 C-24.67753906 87.32925781 -25.79257813 87.34601563 -26.94140625 87.36328125 C-30.45372038 86.94610984 -31.76107309 86.75519711 -34 84 C-36.46723622 75.28671223 -33.0701613 67.57490305 -30.1875 59.375 C-29.68518586 57.9059943 -29.18331816 56.43683587 -28.68188477 54.9675293 C-24.97424009 44.23146836 -20.72554649 33.78599142 -15.99609375 23.45703125 C-12.89699574 16.71881718 -12.89699574 16.71881718 -12.125 9.4375 C-11.97336347 5.26749551 -10.90353547 3.90353547 -8 1 C-5.17998673 -0.41000664 -3.12992745 -0.24548451 0 0 Z M-4 6 C-4.66 6.66 -5.32 7.32 -6 8 C-5.6814823 10.10820797 -5.6814823 10.10820797 -5 12 C-3.35 11.67 -1.7 11.34 0 11 C0 9.68 0 8.36 0 7 C-1.89179203 6.3185177 -1.89179203 6.3185177 -4 6 Z M15 76 C14.67 77.32 14.34 78.64 14 80 C15.88316159 81.10836423 15.88316159 81.10836423 18 82 C18.66 81.67 19.32 81.34 20 81 C19.67 79.35 19.34 77.7 19 76 C17.68 76 16.36 76 15 76 Z " fill="#F33736" transform="translate(248,206)"/>
<path d="M0 0 C11.30086205 7.08412248 16.4943145 20.43698721 22 32 C22.49967285 33.04720215 22.9993457 34.0944043 23.51416016 35.17333984 C25.16663355 38.65199677 26.80446896 42.13717725 28.4375 45.625 C28.97004395 46.75156006 29.50258789 47.87812012 30.05126953 49.03881836 C30.54868652 50.11139893 31.04610352 51.18397949 31.55859375 52.2890625 C32.00517334 53.24506348 32.45175293 54.20106445 32.91186523 55.18603516 C34 58 34 58 34.50024414 61.28271484 C34.66516357 62.17941895 34.83008301 63.07612305 35 64 C37.40952023 65.24714403 37.40952023 65.24714403 40 66 C42.46219772 69.69329658 42.79198683 72.7149344 42 77 C40.01078114 79.9838283 38.61497432 81.60276841 35.0625 82.4765625 C31.13936508 82.75890933 29.32887629 82.21925086 26 80 C23.24222937 75.86334406 23.37611802 73.91307062 24 69 C24.96873032 67.64377755 25.96434215 66.30582947 27 65 C26.54963856 61.14737013 25.21855348 57.8757785 23.6640625 54.34375 C23.18195313 53.24804688 22.69984375 52.15234375 22.203125 51.0234375 C21.42195313 49.27933594 21.42195313 49.27933594 20.625 47.5 C20.09132813 46.30632812 19.55765625 45.11265625 19.0078125 43.8828125 C15.52882776 36.15929625 11.88792842 28.52709362 8 21 C7.5560791 20.12923828 7.1121582 19.25847656 6.65478516 18.36132812 C6.23245605 17.56146484 5.81012695 16.76160156 5.375 15.9375 C5.01148438 15.24527344 4.64796875 14.55304688 4.2734375 13.83984375 C2.76355349 11.65838556 1.23800182 10.41324875 -1 9 C-3.95720628 8.33319632 -3.95720628 8.33319632 -7 9 C-12.69447967 13.26622255 -14.36325974 19.22470537 -16.6875 25.75 C-17.07744141 26.79671875 -17.46738281 27.8434375 -17.86914062 28.921875 C-21.33330313 37.74671252 -21.33330313 37.74671252 -23 47 C-22.35737934 48.3450877 -21.69078902 49.67900312 -21 51 C-21.13401747 54.75248912 -21.52457893 57.22744076 -23.5 60.4375 C-27.23510862 62.77194289 -30.71290365 62.80383057 -35 62 C-37.50160818 60.12379387 -38.61945652 58.76108697 -40 56 C-40.41465022 52.268148 -40.297997 50.48562474 -38.3125 47.25 C-36 45 -36 45 -33.56640625 44.35546875 C-29.7016014 42.31424001 -28.97961626 38.98627288 -27.625 35.0625 C-27.18510742 33.87479004 -27.18510742 33.87479004 -26.73632812 32.66308594 C-25.16531828 28.3972415 -23.69302739 24.10090953 -22.2421875 19.79296875 C-21.80398682 18.52731079 -21.80398682 18.52731079 -21.35693359 17.23608398 C-20.80036535 15.62140183 -20.26303331 13.99991344 -19.74853516 12.37133789 C-16.65498216 3.39770967 -9.84425163 -3.05033149 0 0 Z M-32 50 C-32.66 51.32 -33.32 52.64 -34 54 C-33.34 54.66 -32.68 55.32 -32 56 C-29.91666667 55.83333333 -29.91666667 55.83333333 -28 55 C-27.67 54.34 -27.34 53.68 -27 53 C-27.66 52.01 -28.32 51.02 -29 50 C-29.99 50 -30.98 50 -32 50 Z M32 70 C31.34 70.66 30.68 71.32 30 72 C30.3185177 74.10820797 30.3185177 74.10820797 31 76 C32.32 75.67 33.64 75.34 35 75 C35.33 73.68 35.66 72.36 36 71 C34.10820797 70.3185177 34.10820797 70.3185177 32 70 Z " fill="#5771EB" transform="translate(273,209)"/>
<path d="M0 0 C7.63054095 0.61044328 14.70189474 2.79621821 22 5 C22 6.65 22 8.3 22 10 C18.42355152 11.2380014 15.66305234 10.74926071 12 10 C14.64 12.31 17.28 14.62 20 17 C19.67 18.65 19.34 20.3 19 22 C15.7 22 12.4 22 9 22 C11.97 23.98 14.94 25.96 18 28 C17.67 29.98 17.34 31.96 17 34 C11.96617902 32.3518456 7.9739509 29.39351949 3.6875 26.375 C2.94693359 25.859375 2.20636719 25.34375 1.44335938 24.8125 C-0.37422697 23.54605274 -2.18850838 22.27514241 -4 21 C-3.67 18.69 -3.34 16.38 -3 14 C0.96 14.33 4.92 14.66 9 15 C8.26652344 14.50371094 7.53304687 14.00742188 6.77734375 13.49609375 C-0.78593417 8.01349751 -0.78593417 8.01349751 -1.44140625 4.91015625 C-1.125 3 -1.125 3 0 0 Z " fill="#020202" transform="translate(175,226)"/>
<path d="M0 0 C0.77601563 0.15984375 1.55203125 0.3196875 2.3515625 0.484375 C4.375 1.25 4.375 1.25 6.375 4.25 C6.5 6.9375 6.5 6.9375 6.375 9.25 C3.375 10.25 3.375 10.25 0.375 9.25 C0.375 7.93 0.375 6.61 0.375 5.25 C-1.275 5.25 -2.925 5.25 -4.625 5.25 C-3.84125 6.03375 -3.0575 6.8175 -2.25 7.625 C-0.70833333 9.16666667 0.83333333 10.70833333 2.375 12.25 C2.23600363 15.51641464 1.9380768 17.546154 -0.125 20.125 C-4.92217115 22.28372702 -9.76251534 21.94843175 -14.625 20.125 C-17.28785369 17.62857467 -17.47228706 15.838754 -17.625 12.25 C-17.295 11.59 -16.965 10.93 -16.625 10.25 C-13.655 10.745 -13.655 10.745 -10.625 11.25 C-10.295 12.57 -9.965 13.89 -9.625 15.25 C-7.975 15.58 -6.325 15.91 -4.625 16.25 C-5.40875 15.46625 -6.1925 14.6825 -7 13.875 C-11.625 9.25 -11.625 9.25 -11.9375 6.3125 C-11.625 3.25 -11.625 3.25 -10.375 1.4375 C-6.90479246 -0.91728369 -4.01041884 -0.88524296 0 0 Z " fill="#020202" transform="translate(291.625,177.75)"/>
<path d="M0 0 C0.8971875 0.433125 0.8971875 0.433125 1.8125 0.875 C2.1425 1.865 2.4725 2.855 2.8125 3.875 C3.988125 4.0296875 3.988125 4.0296875 5.1875 4.1875 C7.8125 4.875 7.8125 4.875 9.8125 7.875 C9.67544821 11.16424289 9.38745811 13.15630237 7.3125 15.75 C3.51753237 17.45773543 -0.09450497 17.46078644 -4.1875 16.875 C-6.75 15.375 -6.75 15.375 -8.1875 13.875 C-8.93 14.555625 -9.6725 15.23625 -10.4375 15.9375 C-13.1875 17.875 -13.1875 17.875 -15.5 17.625 C-16.056875 17.3775 -16.61375 17.13 -17.1875 16.875 C-17.1875 12.875 -17.1875 12.875 -14.921875 10.40234375 C-13.93703125 9.54769531 -12.9521875 8.69304687 -11.9375 7.8125 C-10.96296875 6.95527344 -9.9884375 6.09804687 -8.984375 5.21484375 C-2.5750519 -0.14714582 -2.5750519 -0.14714582 0 0 Z M-1.1875 6.875 C-1.8475 8.195 -2.5075 9.515 -3.1875 10.875 C-0.7125 11.37 -0.7125 11.37 1.8125 11.875 C2.1425 10.555 2.4725 9.235 2.8125 7.875 C1.4925 7.545 0.1725 7.215 -1.1875 6.875 Z " fill="#030303" transform="translate(302.1875,192.125)"/>
<path d="M0 0 C2.97 0.495 2.97 0.495 6 1 C5.34 3.97 4.68 6.94 4 10 C4.969375 10.144375 5.93875 10.28875 6.9375 10.4375 C10 11 10 11 11 12 C10.94921875 14.14453125 10.94921875 14.14453125 10.6875 16.8125 C10.56955078 18.12154297 10.56955078 18.12154297 10.44921875 19.45703125 C10.00244976 21.98613225 9.26661261 23.78213548 8 26 C6.35 26 4.7 26 3 26 C2 24 2 24 2.55859375 21.8359375 C2.99365234 20.61777344 2.99365234 20.61777344 3.4375 19.375 C3.86869141 18.14910156 3.86869141 18.14910156 4.30859375 16.8984375 C4.53675781 16.27195313 4.76492188 15.64546875 5 15 C1.51668565 18.01887244 0.20842856 20.56909529 -1 25 C-2.98 25 -4.96 25 -7 25 C-5.32234985 16.45923559 -2.65997819 8.27435964 0 0 Z " fill="#020202" transform="translate(263,169)"/>
<path d="M0 0 C0.33 -0.33 0.66 -0.66 1 -1 C2.66611905 -1.042721 4.33382885 -1.04063832 6 -1 C6.66 -1 7.32 -1 8 -1 C12 -1 16 -1 20 -1 C20 -0.34 20 0.32 20 1 C20.99 0.34 21.98 -0.32 23 -1 C25.6875 -0.625 25.6875 -0.625 28 0 C28.125 2.875 28.125 2.875 28 6 C27.34 6.66 26.68 7.32 26 8 C23.8359375 7.9765625 23.8359375 7.9765625 21.375 7.625 C20.55773437 7.51414062 19.74046875 7.40328125 18.8984375 7.2890625 C18.27195312 7.19367188 17.64546875 7.09828125 17 7 C17.33 5.35 17.66 3.7 18 2 C17.34 2 16.68 2 16 2 C15.67 3.65 15.34 5.3 15 7 C14.01 7 13.02 7 12 7 C12.33 5.35 12.66 3.7 13 2 C12.34 2 11.68 2 11 2 C10.67 3.65 10.34 5.3 10 7 C8.37675914 7.22162329 6.751279 7.42689803 5.125 7.625 C4.22007812 7.74101562 3.31515625 7.85703125 2.3828125 7.9765625 C1.59648437 7.98429687 0.81015625 7.99203125 0 8 C-0.66 7.34 -1.32 6.68 -2 6 C-2.99 6.66 -3.98 7.32 -5 8 C-7.1875 7.625 -7.1875 7.625 -9 7 C-10.31236443 2.5856833 -10.31236443 2.5856833 -9 0.125 C-5.92007888 -1.60745563 -3.37023548 -0.62411768 0 0 Z " fill="#090909" transform="translate(340,300)"/>
<path d="M0 0 C3.80181547 2.88413588 5.71911649 7.18823297 7.8125 11.375 C0.8825 14.345 0.8825 14.345 -6.1875 17.375 C-14.22798583 8.09751635 -14.22798583 8.09751635 -14.03515625 4.65625 C-11.6938945 -1.6446572 -5.83048962 -1.66585418 0 0 Z M-7.1875 5.375 C-6.8575 6.695 -6.5275 8.015 -6.1875 9.375 C-4.5375 9.045 -2.8875 8.715 -1.1875 8.375 C-1.8475 7.055 -2.5075 5.735 -3.1875 4.375 C-5.2620356 4.2259288 -5.2620356 4.2259288 -7.1875 5.375 Z " fill="#020202" transform="translate(320.1875,208.625)"/>
<path d="M0 0 C4.06298709 3.53059568 6.31536905 7.6943874 8.8125 12.375 C9.23208984 13.1175 9.65167969 13.86 10.08398438 14.625 C12.05311127 18.29724325 13.04758948 20.29317924 12.76171875 24.5390625 C12.51035156 25.35117188 12.25898438 26.16328125 12 27 C11.01 27 10.02 27 9 27 C8.46439453 25.60394531 8.46439453 25.60394531 7.91796875 24.1796875 C5.50625639 20.18145153 3.6779531 19.59455847 -0.6875 18.125 C-1.86699219 17.71507812 -3.04648438 17.30515625 -4.26171875 16.8828125 C-5.16535156 16.59148437 -6.06898438 16.30015625 -7 16 C-7 12 -7 12 -6 10 C-5.21625 10.165 -4.4325 10.33 -3.625 10.5 C-1.11791961 11.0623707 -1.11791961 11.0623707 1 11 C0.2265625 9.9171875 0.2265625 9.9171875 -0.5625 8.8125 C-2 6 -2 6 -1.75 3.25 C-1 1 -1 1 0 0 Z " fill="#020202" transform="translate(194,209)"/>
<path d="M0 0 C3.96 0 7.92 0 12 0 C12.33 0.66 12.66 1.32 13 2 C13.33 1.34 13.66 0.68 14 0 C17.375 -0.125 17.375 -0.125 21 0 C21.66 0.66 22.32 1.32 23 2 C23.66 1.34 24.32 0.68 25 0 C27.625 0.375 27.625 0.375 30 1 C30.6875 3.3125 30.6875 3.3125 31 6 C29.875 7.875 29.875 7.875 28 9 C25.3125 8.6875 25.3125 8.6875 23 8 C23 7.34 23 6.68 23 6 C22.34 6 21.68 6 21 6 C21 6.66 21 7.32 21 8 C19.35 8.33 17.7 8.66 16 9 C15.67 9.99 15.34 10.98 15 12 C14.01 12 13.02 12 12 12 C12 10.68 12 9.36 12 8 C11.01 8 10.02 8 9 8 C9.33 6.35 9.66 4.7 10 3 C9.34 3 8.68 3 8 3 C7.67 4.65 7.34 6.3 7 8 C6.01 8 5.02 8 4 8 C4.33 6.35 4.66 4.7 5 3 C4.34 3 3.68 3 3 3 C2.67 4.65 2.34 6.3 2 8 C1.01 8 0.02 8 -1 8 C-0.67 5.36 -0.34 2.72 0 0 Z M17 3 C16.67 3.99 16.34 4.98 16 6 C16.99 5.67 17.98 5.34 19 5 C19 4.34 19 3.68 19 3 C18.34 3 17.68 3 17 3 Z M26 3 C26 3.99 26 4.98 26 6 C26.66 5.67 27.32 5.34 28 5 C28 4.34 28 3.68 28 3 C27.34 3 26.68 3 26 3 Z M12 5 C13 8 13 8 13 8 Z " fill="#060606" transform="translate(156,299)"/>
<path d="M0 0 C2.4434877 3.66523155 2.84707648 6.73970357 2 11 C-0.4375 13.9375 -0.4375 13.9375 -3 16 C-3.33 16.33 -3.66 16.66 -4 17 C-8.03160191 17.26293056 -9.55892734 17.29404844 -13 15 C-14.00970603 11.17754144 -14.39714392 8.91970172 -12.8125 5.25 C-8.92524706 0.42444462 -6.33267678 -0.70363075 0 0 Z M-6 4 C-6.33 4.66 -6.66 5.32 -7 6 C-6.01 5.67 -5.02 5.34 -4 5 C-4.66 4.67 -5.32 4.34 -6 4 Z M-5 9 C-5.99 9.495 -5.99 9.495 -7 10 C-7 10.66 -7 11.32 -7 12 C-5.68 11.34 -4.36 10.68 -3 10 C-3.66 9.67 -4.32 9.34 -5 9 Z " fill="#020202" transform="translate(235,184)"/>
<path d="M0 0 C3 1 3 1 3.9375 2.8125 C3.958125 3.534375 3.97875 4.25625 4 5 C2.68 6.32 1.36 7.64 0 9 C2.31 13.95 4.62 18.9 7 24 C6.01 24.99 5.02 25.98 4 27 C-0.06762061 25.64412646 -0.86334252 23.0515406 -2.6875 19.4375 C-3.00783203 18.82197266 -3.32816406 18.20644531 -3.65820312 17.57226562 C-4.44746371 16.0526445 -5.22487915 14.52688189 -6 13 C-7.65 13.66 -9.3 14.32 -11 15 C-11.80078125 12.796875 -11.80078125 12.796875 -12 10 C-9.98046875 7.578125 -9.98046875 7.578125 -7.1875 5.25 C-5.81658203 4.08210937 -5.81658203 4.08210937 -4.41796875 2.890625 C-2 1 -2 1 0 0 Z " fill="#020202" transform="translate(212,183)"/>
<path d="M0 0 C3.39498112 0.09876309 4.18748043 0.43748626 7.125 2.5 C9.57993677 5.99642509 10.1875 8.17653737 10.1875 12.4375 C9.1875 14.875 9.1875 14.875 7.1875 16.4375 C2.74356997 17.19212963 0.68732505 16.71921957 -3.25 14.5 C-6.32284472 10.82757582 -6.4049592 9.04221756 -6.21875 4.42578125 C-5.41877242 0.51050636 -3.80909147 0.43710886 0 0 Z M-1.8125 6.4375 C-1.4825 7.7575 -1.1525 9.0775 -0.8125 10.4375 C-0.1525 10.4375 0.5075 10.4375 1.1875 10.4375 C0.8575 9.1175 0.5275 7.7975 0.1875 6.4375 C-0.4725 6.4375 -1.1325 6.4375 -1.8125 6.4375 Z M4.1875 7.4375 C5.1875 11.4375 5.1875 11.4375 5.1875 11.4375 Z " fill="#030303" transform="translate(327.8125,242.5625)"/>
<path d="M0 0 C3.15696409 1.36323449 4.61385591 2.35057585 6.375 5.3125 C7.15024358 8.64604738 6.97718613 10.71944656 6 14 C4.375 16.3125 4.375 16.3125 2 18 C-0.32275177 18.40047444 -2.65739357 18.7397104 -5 19 C-5.66 19.66 -6.32 20.32 -7 21 C-6.67 19.68 -6.34 18.36 -6 17 C-3.69 17 -1.38 17 1 17 C1 16.34 1 15.68 1 15 C1.99 15 2.98 15 4 15 C3.67 13.68 3.34 12.36 3 11 C2.34 11.66 1.68 12.32 1 13 C-2.625 13.125 -2.625 13.125 -6 13 C-6.33 10.69 -6.66 8.38 -7 6 C-7.99 6.66 -8.98 7.32 -10 8 C-9.9326117 9.85317818 -9.86212867 11.70631288 -9.7734375 13.55859375 C-10.22455946 18.41982178 -12.79249316 22.71112956 -15 27 C-15.66 27 -16.32 27 -17 27 C-16.02141808 23.83842764 -15.03570071 21.0617897 -13.375 18.1875 C-12.0083707 15.01940481 -11.90315941 13.75617985 -12.0625 10.4375 C-12.19933571 6.90951845 -12.09787825 6.1566052 -10.125 3 C-6.73604791 -0.18960196 -4.60653411 -0.36129679 0 0 Z M-4 6 C-4.66 6.66 -5.32 7.32 -6 8 C-5.6814823 10.10820797 -5.6814823 10.10820797 -5 12 C-3.35 11.67 -1.7 11.34 0 11 C0 9.68 0 8.36 0 7 C-1.89179203 6.3185177 -1.89179203 6.3185177 -4 6 Z " fill="#DD3F43" transform="translate(248,206)"/>
<path d="M0 0 C0.99 0 1.98 0 3 0 C2.67 3.3 2.34 6.6 2 10 C0.68 10.33 -0.64 10.66 -2 11 C-1.67 9.35 -1.34 7.7 -1 6 C-1.99 6.495 -1.99 6.495 -3 7 C-3.65213292 9.02463255 -3.65213292 9.02463255 -4 11 C-4.8353125 10.690625 -4.8353125 10.690625 -5.6875 10.375 C-8.09495804 9.76663434 -8.09495804 9.76663434 -10.5 11.125 C-11.325 11.41375 -12.15 11.7025 -13 12 C-15.3125 10.625 -15.3125 10.625 -17 9 C-17.33 9.66 -17.66 10.32 -18 11 C-20.97 11 -23.94 11 -27 11 C-27 8.36 -27 5.72 -27 3 C-24.66666667 3 -22.33333333 3 -20 3 C-20 3.66 -20 4.32 -20 5 C-19.34 5 -18.68 5 -18 5 C-18 4.34 -18 3.68 -18 3 C-16.54207116 2.94600264 -15.08357288 2.90720823 -13.625 2.875 C-12.81289062 2.85179687 -12.00078125 2.82859375 -11.1640625 2.8046875 C-9 3 -9 3 -7 5 C-6.67 4.34 -6.34 3.68 -6 3 C-4.35 3 -2.7 3 -1 3 C-0.67 2.01 -0.34 1.02 0 0 Z " fill="#070706" transform="translate(215,296)"/>
<path d="M0 0 C4.06476574 2.53089187 5.70507487 3.99378485 7.0625 8.625 C7 12 7 12 5.5625 13.9375 C5.046875 14.288125 4.53125 14.63875 4 15 C3.01 14.67 2.02 14.34 1 14 C0.09162237 11.52260646 0 9.66420516 0 7 C-1.32 7 -2.64 7 -4 7 C-4 7.66 -4 8.32 -4 9 C-3.525625 9.45375 -3.05125 9.9075 -2.5625 10.375 C-0.77906263 12.22977487 -0.4308007 13.50135592 0 16 C-6.35599622 14.56090652 -6.35599622 14.56090652 -8.9375 12.3125 C-10.45631665 9.00684023 -10.45660368 6.58760038 -10 3 C-7.15014471 -0.39790438 -4.26086239 -0.68173798 0 0 Z " fill="#030303" transform="translate(327,225)"/>
<path d="M0 0 C1.8125 1.3125 1.8125 1.3125 3 3 C3 3.99 3 4.98 3 6 C-0.153368 6.70074844 -2.72724974 7 -6 7 C-5.67 8.32 -5.34 9.64 -5 11 C-4.34 11 -3.68 11 -3 11 C-3 10.34 -3 9.68 -3 9 C-1.02 8.67 0.96 8.34 3 8 C1.375 13.75 1.375 13.75 -2 16 C-4.19140625 16.30078125 -4.19140625 16.30078125 -6.5625 16.3125 C-7.34753906 16.32925781 -8.13257813 16.34601563 -8.94140625 16.36328125 C-9.62074219 16.24339844 -10.30007812 16.12351563 -11 16 C-13.32536063 12.51195905 -13.33457898 11.09859246 -13 7 C-12.06717938 3.73512782 -11.12245866 3.0761965 -8.1875 1.25 C-5.07706161 0.03022024 -3.27737869 -0.53146681 0 0 Z " fill="#020202" transform="translate(252,179)"/>
<path d="M0 0 C0.66 0 1.32 0 2 0 C2 0.99 2 1.98 2 3 C3.32 3 4.64 3 6 3 C6.79953138 6.28696233 7.09658936 7.71023192 6 11 C5.01 11 4.02 11 3 11 C3.33 9.35 3.66 7.7 4 6 C3.01 6.495 3.01 6.495 2 7 C1.34786708 9.02463255 1.34786708 9.02463255 1 11 C0.1646875 10.690625 0.1646875 10.690625 -0.6875 10.375 C-3.65496587 9.89378932 -5.27337498 10.85194736 -8 12 C-8.66 11.67 -9.32 11.34 -10 11 C-10 10.34 -10 9.68 -10 9 C-10.66 9 -11.32 9 -12 9 C-12 9.66 -12 10.32 -12 11 C-16.75 12.125 -16.75 12.125 -19 11 C-19.125 8.125 -19.125 8.125 -19 5 C-17 3 -17 3 -14.5 2.75 C-12 3 -12 3 -10 5 C-9.34 4.34 -8.68 3.68 -8 3 C-5.4375 2.8125 -5.4375 2.8125 -3 3 C-2.67 3.33 -2.34 3.66 -2 4 C-1.34 2.68 -0.68 1.36 0 0 Z M-7 6 C-7 6.99 -7 7.98 -7 9 C-5.35 8.67 -3.7 8.34 -2 8 C-4.67642489 5.81509993 -4.67642489 5.81509993 -7 6 Z " fill="#0A0A0B" transform="translate(303,296)"/>
<path d="M0 0 C1.6440388 5.90359388 -0.15741308 9.68559837 -3 15 C-2.67 15.33 -2.34 15.66 -2 16 C-1.34 14.35 -0.68 12.7 0 11 C0.66 11 1.32 11 2 11 C2.33 9.68 2.66 8.36 3 7 C4.16530993 10.49592979 3.80630071 11.19516181 2.53125 14.52734375 C2.20769531 15.40197266 1.88414062 16.27660156 1.55078125 17.17773438 C0.85155923 19.01416693 0.15104288 20.85010719 -0.55078125 22.68554688 C-0.87433594 23.56146484 -1.19789063 24.43738281 -1.53125 25.33984375 C-1.83611328 26.13769287 -2.14097656 26.93554199 -2.45507812 27.75756836 C-3.06676614 30.27475224 -2.82016799 31.57564669 -2 34 C-1.38613385 36.68632023 -0.88675987 39.23694071 -1 42 C-2.9375 44.5 -2.9375 44.5 -5 46 C-4.608125 44.783125 -4.21625 43.56625 -3.8125 42.3125 C-2.97880731 39.05247408 -2.80918242 38.38163517 -4.375 35.25 C-4.91125 34.5075 -5.4475 33.765 -6 33 C-6 31.68 -6 30.36 -6 29 C-5.34 29 -4.68 29 -4 29 C-4.33 28.01 -4.66 27.02 -5 26 C-7.12364481 25.77390663 -7.12364481 25.77390663 -8.625 27.5 C-9.07875 27.995 -9.5325 28.49 -10 29 C-7.24809142 19.12550449 -3.59872163 9.58969974 0 0 Z " fill="#5771E8" transform="translate(253,223)"/>
<path d="M0 0 C1.32 0.33 2.64 0.66 4 1 C3.34 3.31 2.68 5.62 2 8 C-0.31 8 -2.62 8 -5 8 C-5 9.32 -5 10.64 -5 12 C-5.66 12 -6.32 12 -7 12 C-7 12.66 -7 13.32 -7 14 C-8.65 14 -10.3 14 -12 14 C-12 14.66 -12 15.32 -12 16 C-13.65 16 -15.3 16 -17 16 C-17.66 17.32 -18.32 18.64 -19 20 C-20.32 19.34 -21.64 18.68 -23 18 C-22.34 18 -21.68 18 -21 18 C-21 17.34 -21 16.68 -21 16 C-20.236875 15.79375 -19.47375 15.5875 -18.6875 15.375 C-15.74808179 14.20600969 -15.74808179 14.20600969 -14.5625 11.125 C-12.61603702 7.23207403 -10.83933538 5.99350106 -7 4 C-3.125 3.25 -3.125 3.25 0 3 C0 2.01 0 1.02 0 0 Z " fill="#FC312F" transform="translate(276,255)"/>
<path d="M0 0 C2.875 -0.125 2.875 -0.125 6 0 C6.66 0.66 7.32 1.32 8 2 C8.66 1.34 9.32 0.68 10 0 C13.125 -0.125 13.125 -0.125 16 0 C15.4740625 1.670625 15.4740625 1.670625 14.9375 3.375 C13.62760669 6.80264476 13.62760669 6.80264476 15 9 C14.01 10.485 14.01 10.485 13 12 C10.375 12.1875 10.375 12.1875 8 12 C7.67 10.68 7.34 9.36 7 8 C6.01 8 5.02 8 4 8 C4 6.35 4 4.7 4 3 C3.34 3 2.68 3 2 3 C1.67 4.65 1.34 6.3 1 8 C0.01 7.67 -0.98 7.34 -2 7 C-1.34 4.69 -0.68 2.38 0 0 Z " fill="#0C0A0A" transform="translate(219,299)"/>
<path d="M0 0 C0.66 0.33 1.32 0.66 2 1 C1.67 1.99 1.34 2.98 1 4 C3.64 4 6.28 4 9 4 C9.33 5.65 9.66 7.3 10 9 C9.34 8.01 8.68 7.02 8 6 C6.68 6 5.36 6 4 6 C4.33 7.32 4.66 8.64 5 10 C6.32 10 7.64 10 9 10 C8.67 10.99 8.34 11.98 8 13 C7.01 13 6.02 13 5 13 C4.67 13.66 4.34 14.32 4 15 C8.455 14.505 8.455 14.505 13 14 C10.65625462 16.16345727 9.25415543 16.96214706 6.0625 17.4375 C2.29439042 16.89919863 0.70155711 15.62436976 -2 13 C-3.52846661 9.94306678 -3.23242445 7.37015453 -3 4 C-1.5 1.5625 -1.5 1.5625 0 0 Z " fill="#E13E3B" transform="translate(259,277)"/>
<path d="M0 0 C3.22259833 4.07820623 5.15866456 8.3970881 7.25 13.125 C7.62640625 13.94871094 8.0028125 14.77242187 8.390625 15.62109375 C8.74125 16.40871094 9.091875 17.19632813 9.453125 18.0078125 C9.77442383 18.72598145 10.09572266 19.44415039 10.42675781 20.18408203 C11 22 11 22 10 24 C7 19.25 7 19.25 7 17 C5.68 17 4.36 17 3 17 C3.33 18.65 3.66 20.3 4 22 C0.22002434 18.22002434 -1.92740977 12.71003537 -2.0703125 7.375 C-1.44287634 1.44287634 -1.44287634 1.44287634 0 0 Z " fill="#E53D3D" transform="translate(266,224)"/>
<path d="M0 0 C1.37562854 1.28965176 2.70766393 2.62689293 4 4 C4 4.66 4 5.32 4 6 C4.99 6 5.98 6 7 6 C8.1577506 9.47325181 8.06866652 12.36067448 8 16 C8.66 16 9.32 16 10 16 C10 17.98 10 19.96 10 22 C7.03767082 21.08391837 5.3483091 20.44721168 3.41796875 17.96875 C0.32816036 11.76951539 -0.66111925 6.90502333 0 0 Z " fill="#5572F1" transform="translate(285,228)"/>
<path d="M0 0 C4.68200014 -0.31922728 6.34221559 0.25666169 10 3 C13.16732421 3.25086724 13.16732421 3.25086724 16 3 C15 6 15 6 13 7 C12.34786708 9.02463255 12.34786708 9.02463255 12 11 C11.38125 10.814375 10.7625 10.62875 10.125 10.4375 C7.95839822 9.76313824 7.95839822 9.76313824 6 11 C3.3276379 11.13415472 0.67749512 11.04318541 -2 11 C-1.34 7.37 -0.68 3.74 0 0 Z M3 3 C1.70366379 4.06645115 1.70366379 4.06645115 1.9375 6.5625 C1.958125 7.366875 1.97875 8.17125 2 9 C3.32 8.34 4.64 7.68 6 7 C6 5.68 6 4.36 6 3 C5.01 3 4.02 3 3 3 Z " fill="#060606" transform="translate(315,296)"/>
<path d="M0 0 C4.875 0.875 4.875 0.875 6 2 C6.33 1.34 6.66 0.68 7 0 C7.99 0 8.98 0 10 0 C9.67 1.98 9.34 3.96 9 6 C9.66 5.67 10.32 5.34 11 5 C11.65555119 2.47266765 11.65555119 2.47266765 12 0 C12.99 0 13.98 0 15 0 C14.67 2.64 14.34 5.28 14 8 C11.1875 8.625 11.1875 8.625 8 9 C7.01 8.34 6.02 7.68 5 7 C4.34 7.66 3.68 8.32 3 9 C0.375 8.625 0.375 8.625 -2 8 C-2.6875 6.25 -2.6875 6.25 -3 4 C-1.5625 1.75 -1.5625 1.75 0 0 Z M1 3 C1 3.99 1 4.98 1 6 C1.66 5.67 2.32 5.34 3 5 C3 4.34 3 3.68 3 3 C2.34 3 1.68 3 1 3 Z " fill="#0C0B0C" transform="translate(250,299)"/>
<path d="M0 0 C0.99 0.33 1.98 0.66 3 1 C3 1.99 3 2.98 3 4 C2.34 4 1.68 4 1 4 C1.20496094 4.54269531 1.40992188 5.08539063 1.62109375 5.64453125 C1.89050781 6.35996094 2.15992188 7.07539063 2.4375 7.8125 C2.83775391 8.87404297 2.83775391 8.87404297 3.24609375 9.95703125 C5.05888808 14.86942209 5.05888808 14.86942209 3.5625 18.1875 C3.046875 19.115625 2.53125 20.04375 2 21 C-0.86724686 20.42655063 -1.8614515 20.1385485 -4 18 C-3.360625 17.7525 -2.72125 17.505 -2.0625 17.25 C0.18741541 16.18437567 0.18741541 16.18437567 0.75 13.875 C0.8325 13.25625 0.915 12.6375 1 12 C0.34 12 -0.32 12 -1 12 C-1 11.01 -1 10.02 -1 9 C-2.65 9 -4.3 9 -6 9 C-6 8.34 -6 7.68 -6 7 C-5.34 7 -4.68 7 -4 7 C-4 6.01 -4 5.02 -4 4 C-2 1.8125 -2 1.8125 0 0 Z " fill="#5270F9" transform="translate(246,248)"/>
<path d="M0 0 C0.99 0 1.98 0 3 0 C2.67 3.3 2.34 6.6 2 10 C0.68 10.33 -0.64 10.66 -2 11 C-1.67 9.35 -1.34 7.7 -1 6 C-1.99 6.495 -1.99 6.495 -3 7 C-3.65213292 9.02463255 -3.65213292 9.02463255 -4 11 C-4.99 11 -5.98 11 -7 11 C-7.33 10.34 -7.66 9.68 -8 9 C-9.98 9 -11.96 9 -14 9 C-13.67 7.68 -13.34 6.36 -13 5 C-10.69 5.33 -8.38 5.66 -6 6 C-6 5.01 -6 4.02 -6 3 C-4.35 3 -2.7 3 -1 3 C-0.67 2.01 -0.34 1.02 0 0 Z " fill="#0D0A0C" transform="translate(215,296)"/>
<path d="M0 0 C2.07324138 3.10986207 2.27392186 3.89108387 2.25 7.4375 C2.25515625 8.19933594 2.2603125 8.96117187 2.265625 9.74609375 C1.96303919 12.31362335 1.44104583 13.85211207 0 16 C-3.05918559 18.1148283 -5.59248801 18.22125032 -9.25 18.125 C-10.14203125 18.10695313 -11.0340625 18.08890625 -11.953125 18.0703125 C-12.62859375 18.04710937 -13.3040625 18.02390625 -14 18 C-14 17.67 -14 17.34 -14 17 C-10.37 16.67 -6.74 16.34 -3 16 C-4.68761154 12.74665741 -4.68761154 12.74665741 -7.8203125 12.26953125 C-8.91085937 12.11871094 -10.00140625 11.96789062 -11.125 11.8125 C-12.22070312 11.65394531 -13.31640625 11.49539063 -14.4453125 11.33203125 C-15.28835938 11.22246094 -16.13140625 11.11289062 -17 11 C-17.33 8.69 -17.66 6.38 -18 4 C-17.01 4.495 -17.01 4.495 -16 5 C-15.67 6.32 -15.34 7.64 -15 9 C-11.7 9.66 -8.4 10.32 -5 11 C-4.67 10.34 -4.34 9.68 -4 9 C-2.68 9.66 -1.36 10.32 0 11 C0 7.37 0 3.74 0 0 Z " fill="#DF4242" transform="translate(290,275)"/>
<path d="M0 0 C1.134375 0.020625 2.26875 0.04125 3.4375 0.0625 C3.4375 1.0525 3.4375 2.0425 3.4375 3.0625 C1.7875 3.0625 0.1375 3.0625 -1.5625 3.0625 C-1.5625 3.7225 -1.5625 4.3825 -1.5625 5.0625 C-0.2425 5.0625 1.0775 5.0625 2.4375 5.0625 C2.4375 5.7225 2.4375 6.3825 2.4375 7.0625 C0.7875 7.0625 -0.8625 7.0625 -2.5625 7.0625 C-2.5625 7.7225 -2.5625 8.3825 -2.5625 9.0625 C-1.2425 9.0625 0.0775 9.0625 1.4375 9.0625 C1.4375 9.7225 1.4375 10.3825 1.4375 11.0625 C-0.8725 11.0625 -3.1825 11.0625 -5.5625 11.0625 C-5.42207123 9.41619672 -5.27500671 7.77045821 -5.125 6.125 C-5.04378906 5.20847656 -4.96257812 4.29195313 -4.87890625 3.34765625 C-4.36077956 -0.39436982 -3.98403999 0.06989544 0 0 Z " fill="#080808" transform="translate(152.5625,295.9375)"/>
<path d="M0 0 C0.66 0 1.32 0 2 0 C2 0.66 2 1.32 2 2 C2.99 2.33 3.98 2.66 5 3 C5.19491452 4.45736087 5.38069358 5.91594593 5.5625 7.375 C5.66691406 8.18710937 5.77132813 8.99921875 5.87890625 9.8359375 C6 12 6 12 5 14 C3.68 13.67 2.36 13.34 1 13 C0.63901937 11.02206479 0.28638652 9.04260427 -0.0625 7.0625 C-0.25972656 5.96035156 -0.45695312 4.85820312 -0.66015625 3.72265625 C-0.77230469 2.82417969 -0.88445312 1.92570312 -1 1 C-0.67 0.67 -0.34 0.34 0 0 Z " fill="#F93332" transform="translate(285,272)"/>
<path d="M0 0 C1.32 0.33 2.64 0.66 4 1 C4.79953138 4.28696233 5.09658936 5.71023192 4 9 C4.66 9 5.32 9 6 9 C5 11 5 11 2.6875 12.1875 C-0.11989571 13.03624754 -1.301935 12.99928333 -4 12 C-4 10.35 -4 8.7 -4 7 C-2.02 7.99 -2.02 7.99 0 9 C-0.66 8.34 -1.32 7.68 -2 7 C-1.34 4.69 -0.68 2.38 0 0 Z " fill="#4E68F3" transform="translate(302,269)"/>
<path d="M0 0 C0.99 0 1.98 0 3 0 C3 0.99 3 1.98 3 3 C3.66 3 4.32 3 5 3 C5.33 2.01 5.66 1.02 6 0 C6.99 0 7.98 0 9 0 C7.43358249 4.30764815 5.31663844 8.06171464 3 12 C2.01 12 1.02 12 0 12 C0 8.04 0 4.08 0 0 Z " fill="#090909" transform="translate(239,299)"/>
<path d="M0 0 C2 2 2 2 2.4375 5.8125 C2.33330662 9.17733329 1.97086646 10.04370031 0 13 C-4.08644286 15.72429524 -6.16058232 15.55534301 -11 15 C-11.66 14.34 -12.32 13.68 -13 13 C-10.69 13 -8.38 13 -6 13 C-6 12.34 -6 11.68 -6 11 C-4.68 11.33 -3.36 11.66 -2 12 C-2 11.01 -2 10.02 -2 9 C-1.34 9 -0.68 9 0 9 C0 6.03 0 3.06 0 0 Z " fill="#586FDC" transform="translate(313,276)"/>
<path d="M0 0 C1.5 1.1875 1.5 1.1875 3 3 C3.1875 5.6875 3.1875 5.6875 3 8 C2.34 8 1.68 8 1 8 C1 9.32 1 10.64 1 12 C0.01 12.33 -0.98 12.66 -2 13 C-3 12 -3 12 -3.25 8.1875 C-3.22395215 4.56033701 -2.63994297 2.63994297 0 0 Z " fill="#FB322F" transform="translate(232,234)"/>
<path d="M0 0 C2.97 0 5.94 0 9 0 C8.67 0.99 8.34 1.98 8 3 C7.01 3 6.02 3 5 3 C4.67 5.64 4.34 8.28 4 11 C3.01 11 2.02 11 1 11 C1.33 8.36 1.66 5.72 2 3 C1.34 3 0.68 3 0 3 C0 2.01 0 1.02 0 0 Z " fill="#140E0F" transform="translate(276,296)"/>
<path d="M0 0 C1.32 0 2.64 0 4 0 C6.95047835 4.61012242 8.5497272 7.36529617 8 13 C7.01 13 6.02 13 5 13 C4 12 4 12 3.9375 8.9375 C3.958125 7.968125 3.97875 6.99875 4 6 C3.01 5.67 2.02 5.34 1 5 C0.67 3.35 0.34 1.7 0 0 Z " fill="#FB3231" transform="translate(269,241)"/>
<path d="M0 0 C-0.62935259 2.93697877 -1.32501756 5.48752634 -3 8 C-5.625 9.25 -5.625 9.25 -8 10 C-8.33 8.68 -8.66 7.36 -9 6 C-8.01 5.67 -7.02 5.34 -6 5 C-5.30062468 3.68352881 -4.63270867 2.34977849 -4 1 C-2 0 -2 0 0 0 Z " fill="#FB3132" transform="translate(232,249)"/>
<path d="M0 0 C0.66 0.33 1.32 0.66 2 1 C1.67 1.99 1.34 2.98 1 4 C3.64 4 6.28 4 9 4 C9.33 5.65 9.66 7.3 10 9 C9.34 8.01 8.68 7.02 8 6 C6.68 6 5.36 6 4 6 C4 7.32 4 8.64 4 10 C3.34 10 2.68 10 2 10 C2 8.68 2 7.36 2 6 C0.68 5.67 -0.64 5.34 -2 5 C-2 6.98 -2 8.96 -2 11 C-2.33 11 -2.66 11 -3 11 C-3.36923077 4.6 -3.36923077 4.6 -1.5 1.5625 C-1.005 1.046875 -0.51 0.53125 0 0 Z " fill="#E44143" transform="translate(259,277)"/>
<path d="M0 0 C2.89932357 2.39509338 3.50168276 4.31245243 4 8 C3.01 7.67 2.02 7.34 1 7 C1 6.34 1 5.68 1 5 C0.01 5.495 0.01 5.495 -1 6 C-0.67 8.97 -0.34 11.94 0 15 C-5 7.5 -5 7.5 -5 4 C-3.35 3.34 -1.7 2.68 0 2 C0 1.34 0 0.68 0 0 Z " fill="#E14140" transform="translate(286,267)"/>
<path d="M0 0 C3.28465896 2.79196011 5.01321958 6.23196817 7 10 C7 10.66 7 11.32 7 12 C6.34 12 5.68 12 5 12 C3.375 9.5 3.375 9.5 2 7 C1.67 9.31 1.34 11.62 1 14 C-2 10.25 -2 10.25 -2 8 C-1.34 8 -0.68 8 0 8 C0 5.36 0 2.72 0 0 Z " fill="#5972DF" transform="translate(284,222)"/>
<path d="M0 0 C0.33 0.99 0.66 1.98 1 3 C2.32 2.67 3.64 2.34 5 2 C5.268125 2.61875 5.53625 3.2375 5.8125 3.875 C6.95556848 6.2995233 6.95556848 6.2995233 10 8 C5.25 8.125 5.25 8.125 3 7 C2.67 8.32 2.34 9.64 2 11 C-0.67927341 6.98108988 -0.15601248 4.75838077 0 0 Z " fill="#5971DE" transform="translate(297,278)"/>
<path d="M0 0 C0.99 0.33 1.98 0.66 3 1 C2.67 3.31 2.34 5.62 2 8 C2.66 8 3.32 8 4 8 C4 8.99 4 9.98 4 11 C2.68 11 1.36 11 0 11 C-1.49297212 8.01405576 -1.11755228 5.29146376 -1 2 C-0.67 1.34 -0.34 0.68 0 0 Z " fill="#5271FB" transform="translate(236,257)"/>
<path d="M0 0 C0 0.66 0 1.32 0 2 C0.99 2 1.98 2 3 2 C3.33 3.32 3.66 4.64 4 6 C3.01 6 2.02 6 1 6 C1 5.34 1 4.68 1 4 C-1.64 4 -4.28 4 -7 4 C-7 3.01 -7 2.02 -7 1 C-4.50935112 0.31292445 -2.62113708 0 0 0 Z " fill="#FB3132" transform="translate(247,207)"/>
<path d="M0 0 C0.66 0 1.32 0 2 0 C2.0825 1.11375 2.165 2.2275 2.25 3.375 C2.565122 6.98171761 2.565122 6.98171761 4.6875 8.1875 C7.41503926 9.1458246 9.86832782 9.41916627 12.75 9.625 C13.73484375 9.69976562 14.7196875 9.77453125 15.734375 9.8515625 C16.48203125 9.90054687 17.2296875 9.94953125 18 10 C18 10.33 18 10.66 18 11 C15.91731407 11.08126087 13.83371342 11.13930839 11.75 11.1875 C10.58984375 11.22230469 9.4296875 11.25710938 8.234375 11.29296875 C4.72647809 10.97522446 3.37932848 10.56235375 1 8 C0.1960452 5.30469001 0.18580498 2.83352598 0 0 Z " fill="#DC4546" transform="translate(213,282)"/>
<path d="M0 0 C1 2 1 2 0.56274414 3.78759766 C0.30614014 4.48933105 0.04953613 5.19106445 -0.21484375 5.9140625 C-0.48876953 6.67460937 -0.76269531 7.43515625 -1.04492188 8.21875 C-1.33947266 9.0128125 -1.63402344 9.806875 -1.9375 10.625 C-2.22818359 11.42679688 -2.51886719 12.22859375 -2.81835938 13.0546875 C-3.53882525 15.03892138 -4.26855138 17.01978837 -5 19 C-6.15941038 15.52176885 -5.70820884 13.54104422 -5 10 C-4.34 10 -3.68 10 -3 10 C-3.33 7.36 -3.66 4.72 -4 2 C-3.34 2.33 -2.68 2.66 -2 3 C-1.34 2.01 -0.68 1.02 0 0 Z " fill="#E73F41" transform="translate(238,232)"/>
<path d="M0 0 C2.4375 0.75 2.4375 0.75 4.4375 1.75 C4.1075 2.41 3.7775 3.07 3.4375 3.75 C2.7775 3.75 2.1175 3.75 1.4375 3.75 C1.4375 3.09 1.4375 2.43 1.4375 1.75 C0.1175 2.08 -1.2025 2.41 -2.5625 2.75 C-2.5625 3.74 -2.5625 4.73 -2.5625 5.75 C-1.9025 6.08 -1.2425 6.41 -0.5625 6.75 C-0.5625 7.41 -0.5625 8.07 -0.5625 8.75 C-1.8825 8.42 -3.2025 8.09 -4.5625 7.75 C-5.25 5.4375 -5.25 5.4375 -5.5625 2.75 C-3.92311338 0.01768897 -3.18940205 -0.31116118 0 0 Z " fill="#040404" transform="translate(335.5625,299.25)"/>
<path d="M0 0 C0.5534764 2.07553648 1 3.84365964 1 6 C1.99 6.33 2.98 6.66 4 7 C3.34 9.31 2.68 11.62 2 14 C0.9375 12.1875 0.9375 12.1875 0 10 C0.33 9.01 0.66 8.02 1 7 C-0.32 7.33 -1.64 7.66 -3 8 C-1.125 1.125 -1.125 1.125 0 0 Z " fill="#5B6AD9" transform="translate(257,214)"/>
<path d="M0 0 C0.70125 0.07863281 1.4025 0.15726563 2.125 0.23828125 C4 0.6875 4 0.6875 6 2.6875 C4.0625 3.25 4.0625 3.25 2 3.6875 C1.67 3.3575 1.34 3.0275 1 2.6875 C-5.29585983 3.1704644 -5.29585983 3.1704644 -11 5.6875 C-4.8734955 -0.60022831 -4.8734955 -0.60022831 0 0 Z " fill="#5A71DC" transform="translate(269,208.3125)"/>
<path d="M0 0 C1.98 0 3.96 0 6 0 C5 3 5 3 3 4 C2.34786708 6.02463255 2.34786708 6.02463255 2 8 C1.01 8 0.02 8 -1 8 C-0.67 5.36 -0.34 2.72 0 0 Z " fill="#0D0A09" transform="translate(266,299)"/>
<path d="M0 0 C0 0.66 0 1.32 0 2 C-1.98 2.99 -1.98 2.99 -4 4 C-4 4.99 -4 5.98 -4 7 C-4.66 7 -5.32 7 -6 7 C-6.33 7.99 -6.66 8.98 -7 10 C-7.66 10 -8.32 10 -9 10 C-8.6549982 4.65247203 -8.6549982 4.65247203 -8 2 C-5.21027418 -0.30873861 -3.73200169 0 0 0 Z " fill="#FA312D" transform="translate(227,264)"/>
<path d="M0 0 C1.32 0.33 2.64 0.66 4 1 C4.33 3.64 4.66 6.28 5 9 C4.34 9 3.68 9 3 9 C3 8.34 3 7.68 3 7 C2.01 6.67 1.02 6.34 0 6 C0 4.02 0 2.04 0 0 Z " fill="#FB3131" transform="translate(257,282)"/>
<path d="M0 0 C2.79872437 2.52788007 4.45773019 4.20411134 5 8 C3.0625 8.5625 3.0625 8.5625 1 9 C0 8 0 8 -0.09765625 6.15234375 C-0.06510417 4.1015625 -0.03255208 2.05078125 0 0 Z " fill="#5271FB" transform="translate(285,228)"/>
<path d="M0 0 C0.33 0.99 0.66 1.98 1 3 C3.64 3 6.28 3 9 3 C9 3.66 9 4.32 9 5 C8.21625 5.103125 7.4325 5.20625 6.625 5.3125 C3.66954819 5.77595022 3.66954819 5.77595022 2 9 C2 7.35 2 5.7 2 4 C0.02 4.99 0.02 4.99 -2 6 C-1.125 1.125 -1.125 1.125 0 0 Z " fill="#E33E3F" transform="translate(239,208)"/>
<path d="M0 0 C1.32 0.33 2.64 0.66 4 1 C4 3.64 4 6.28 4 9 C3.34 9 2.68 9 2 9 C2 8.34 2 7.68 2 7 C1.34 7 0.68 7 0 7 C0 4.69 0 2.38 0 0 Z " fill="#5171FB" transform="translate(299,259)"/>
<path d="M0 0 C1.5625 1.125 1.5625 1.125 3 3 C2.6875 6.1875 2.6875 6.1875 2 9 C1.34 9 0.68 9 0 9 C-1.25664978 6.09399739 -2 4.20395416 -2 1 C-1.34 0.67 -0.68 0.34 0 0 Z " fill="#5370F9" transform="translate(282,221)"/>
<path d="M0 0 C0.66 0.33 1.32 0.66 2 1 C0.515 3.475 0.515 3.475 -1 6 C-0.34 6.33 0.32 6.66 1 7 C-1.64 6.67 -4.28 6.34 -7 6 C-4.74259377 3.66475218 -2.7194239 1.81294927 0 0 Z " fill="#EB3A39" transform="translate(269,259)"/>
<path d="M0 0 C1.94385053 1.35224385 2.87012525 2.57520133 3.5625 4.83984375 C3.94484704 6.97859749 4.16580078 8.83150036 4 11 C2.0625 13.5 2.0625 13.5 0 15 C0.5859375 13.01432292 1.171875 11.02864583 1.7578125 9.04296875 C2.26093748 6.68854587 2.26093748 6.68854587 0 4 C0 2.68 0 1.36 0 0 Z " fill="#5C71D0" transform="translate(248,254)"/>
<path d="M0 0 C1.14952951 4.16814134 1.05686448 6.9378254 -0.9609375 10.875 C-1.94257058 12.60156031 -2.96838656 14.3028295 -4 16 C-5 14 -5 14 -4.00390625 10.7421875 C-3.53110016 9.4502948 -3.05028031 8.16131362 -2.5625 6.875 C-2.31951172 6.21628906 -2.07652344 5.55757812 -1.82617188 4.87890625 C-1.22421679 3.25008662 -0.61297588 1.62470425 0 0 Z " fill="#5A70D7" transform="translate(253,223)"/>
<path d="M0 0 C0.66 0.33 1.32 0.66 2 1 C2 1.99 2 2.98 2 4 C1.34 4 0.68 4 0 4 C0 4.99 0 5.98 0 7 C-1.32 6.67 -2.64 6.34 -4 6 C-3.67 4.68 -3.34 3.36 -3 2 C-2.01 2 -1.02 2 0 2 C0 1.34 0 0.68 0 0 Z " fill="#4C69F8" transform="translate(311,281)"/>
<path d="M0 0 C1.32 0.33 2.64 0.66 4 1 C4.33 2.65 4.66 4.3 5 6 C4.01 6.33 3.02 6.66 2 7 C0.5393715 4.35261084 0 3.10551666 0 0 Z " fill="#4F73FE" transform="translate(302,269)"/>
<path d="M0 0 C2.31 0.33 4.62 0.66 7 1 C4.08596738 2.94268841 1.14191424 4.46395304 -2 6 C-2 5.34 -2 4.68 -2 4 C-1.34 4 -0.68 4 0 4 C0 2.68 0 1.36 0 0 Z " fill="#E33E3F" transform="translate(271,263)"/>
<path d="M0 0 C0.33 0 0.66 0 1 0 C1 2.97 1 5.94 1 9 C-0.32 9.33 -1.64 9.66 -3 10 C-2.01 6.7 -1.02 3.4 0 0 Z " fill="#E33F3F" transform="translate(228,238)"/>
<path d="M0 0 C2.97 0.495 2.97 0.495 6 1 C5.67 1.99 5.34 2.98 5 4 C3.68 3.67 2.36 3.34 1 3 C0.67 3.66 0.34 4.32 0 5 C0 3.35 0 1.7 0 0 Z " fill="#141616" transform="translate(286,301)"/>
<path d="M0 0 C1.32 0 2.64 0 4 0 C4.33 1.32 4.66 2.64 5 4 C3.02 4 1.04 4 -1 4 C-0.67 2.68 -0.34 1.36 0 0 Z " fill="#171717" transform="translate(202,301)"/>
<path d="M0 0 C1.32 0.33 2.64 0.66 4 1 C4 3.97 4 6.94 4 10 C1.7448078 7.7448078 1.02276532 5.9952413 0 3 C0 2.01 0 1.02 0 0 Z " fill="#E34042" transform="translate(270,246)"/>
<path d="M0 0 C2.46278801 1.231394 3.42497687 2.78064923 5 5 C3.68 5.33 2.36 5.66 1 6 C0.87625 5.360625 0.7525 4.72125 0.625 4.0625 C0.315625 3.0415625 0.315625 3.0415625 0 2 C-0.66 1.67 -1.32 1.34 -2 1 C-1.34 0.67 -0.68 0.34 0 0 Z " fill="#020202" transform="translate(226,305)"/>
<path d="M0 0 C0.99 0 1.98 0 3 0 C3.1953125 6.0546875 3.1953125 6.0546875 3 8 C2.34 8.66 1.68 9.32 1 10 C0.67 6.7 0.34 3.4 0 0 Z " fill="#101010" transform="translate(239,299)"/>
<path d="M0 0 C0.82810826 3.31243305 1.09278428 5.65976579 1 9 C-0.32 9.33 -1.64 9.66 -3 10 C-2.01 6.7 -1.02 3.4 0 0 Z " fill="#E73A39" transform="translate(216,272)"/>
<path d="M0 0 C1.25541557 3.76624671 0.37061958 5.37188934 -1 9 C-1.66 8.67 -2.32 8.34 -3 8 C-3 6.68 -3 5.36 -3 4 C-2.34 4 -1.68 4 -1 4 C-0.67 2.68 -0.34 1.36 0 0 Z " fill="#5872D8" transform="translate(256,230)"/>
</svg>
