<?xml version="1.0" encoding="UTF-8"?>
<svg version="1.1" xmlns="http://www.w3.org/2000/svg" width="500" height="500">
<path d="M0 0 C165 0 330 0 500 0 C500 165 500 330 500 500 C335 500 170 500 0 500 C0 335 0 170 0 0 Z " fill="#FEFEFE" transform="translate(0,0)"/>
<path d="M0 0 C3.48825925 0.92832706 4.94573896 2.59022598 6.9375 5.515625 C7.5625 9.015625 7.5625 9.015625 6.9375 12.515625 C4.875 15.453125 4.875 15.453125 1.9375 17.515625 C-1.875 17.828125 -1.875 17.828125 -5.0625 17.515625 C-5.68088745 19.39544067 -5.68088745 19.39544067 -6.31176758 21.31323242 C-8.14909074 26.82385829 -10.1085341 32.28802363 -12.07421875 37.75390625 C-12.83952083 39.89376289 -13.60448502 42.03374039 -14.36914062 44.17382812 C-15.56433743 47.51717226 -16.76140026 50.85979036 -17.96411133 54.20043945 C-19.13160942 57.44538692 -20.29111418 60.69309644 -21.44921875 63.94140625 C-21.81166183 64.94246902 -22.17410492 65.9435318 -22.54753113 66.97492981 C-22.87820084 67.90657455 -23.20887054 68.8382193 -23.54956055 69.7980957 C-23.84251511 70.61478226 -24.13546967 71.43146881 -24.43730164 72.27290344 C-25.24151935 74.76976708 -25.24151935 74.76976708 -25.0625 78.515625 C-12.11900928 79.39090701 1.14784971 67.62135667 11.3125 60.578125 C12.7416352 59.5975019 14.17132021 58.61767958 15.6015625 57.63867188 C19.05325704 55.27346869 22.49742045 52.89768642 25.9375 50.515625 C23.89786546 43.23449718 21.31772594 36.72442905 18.046875 29.91015625 C16.75705896 25.96350083 16.92166467 23.51423172 17.9375 19.515625 C18.5975 19.185625 19.2575 18.855625 19.9375 18.515625 C20.48688232 19.70526855 21.03626465 20.89491211 21.60229492 22.12060547 C23.66013189 26.57559677 25.72002859 31.02963319 27.78051758 35.48339844 C28.66844106 37.40338987 29.5558215 39.32363254 30.44262695 41.24414062 C31.72461128 44.02021024 33.00860973 46.79534089 34.29296875 49.5703125 C34.87766182 50.83813065 34.87766182 50.83813065 35.47416687 52.13156128 C37.85456569 57.26858489 40.33340884 62.3428055 42.90937805 67.38479614 C44.93431254 71.58156371 45.25712973 74.88099386 44.9375 79.515625 C42.7375 84.115625 42.7375 84.115625 39.9375 85.515625 C37.24207817 85.56165141 34.56880951 85.56243316 31.875 85.515625 C29.22290969 85.46978074 26.59098806 85.4686086 23.9375 85.515625 C23.6075 85.845625 23.2775 86.175625 22.9375 86.515625 C18.69823049 87.04015936 15.1165323 87.25252018 11.4375 84.953125 C9.41894308 81.67297001 8.9375 79.3678807 8.9375 75.515625 C10.70391172 72.71373054 11.96799822 71.00037589 14.9375 69.515625 C19.37118811 69.01369804 21.23902407 68.96899166 24.8125 71.765625 C26.9375 74.515625 26.9375 74.515625 27.9375 78.515625 C31.2375 78.515625 34.5375 78.515625 37.9375 78.515625 C37.65153693 72.22443744 35.1546945 67.60292857 32.21484375 62.08984375 C30.9375 59.515625 30.9375 59.515625 30.9375 57.515625 C20.25497501 63.21788317 10.2334798 69.55904183 0.3125 76.5 C-15.31839772 87.38629779 -15.31839772 87.38629779 -26.0625 86.515625 C-29.32958143 85.56272625 -30.66866006 84.90946494 -33.0625 82.515625 C-34.61745565 74.12430139 -31.41245313 66.1283157 -28.6875 58.328125 C-28.23751329 57.00736405 -27.78764498 55.68656275 -27.33789062 54.36572266 C-22.99742694 41.77688246 -18.14624178 29.1737421 -11.93676758 17.37695312 C-10.86046431 15.08548813 -11.01746551 13.64146761 -11.25 11.140625 C-11.31115876 7.77689311 -11.03763163 5.71568453 -9.0625 2.953125 C-5.72668274 0.24277348 -4.18291841 -0.34857653 0 0 Z " fill="#FF3939" transform="translate(247.0625,206.484375)"/>
<path d="M0 0 C15.68257017 7.09449603 22.7989665 29.9642857 29.21044922 44.70874023 C31.06153697 48.95749676 33.02641075 53.10415378 35.18359375 57.20703125 C36.33643225 59.73886316 36.72479672 62.24796721 37 65 C37.61875 65.12375 38.2375 65.2475 38.875 65.375 C41 66 41 66 43 68 C43.56022462 71.38493611 43.53001259 74.61229064 43 78 C40.45872167 81.13922618 38.95227601 81.84128733 35 82.5 C31.30796584 81.88466097 29.65983132 80.58383614 27 78 C25.57337781 75.14675563 25.68966132 73.16545451 26 70 C26.721875 69.236875 27.44375 68.47375 28.1875 67.6875 C30.2537448 65.28238199 30.2537448 65.28238199 29.71630859 63.20385742 C27.30754819 56.51242378 24.4417014 50.06904299 21.4375 43.625 C20.91099854 42.49191406 20.38449707 41.35882813 19.84204102 40.19140625 C16.50151093 33.06119074 13.06688212 25.98784335 9.4375 19 C9.03265381 18.21189941 8.62780762 17.42379883 8.21069336 16.61181641 C7.83050049 15.89429199 7.45030762 15.17676758 7.05859375 14.4375 C6.73173584 13.81746094 6.40487793 13.19742188 6.06811523 12.55859375 C4.92231898 10.67898676 4.92231898 10.67898676 2 9 C-3.44568498 8.26515253 -3.44568498 8.26515253 -8.07421875 10.60546875 C-11.6402602 15.03951217 -13.22499309 20.51934622 -15.18261719 25.8046875 C-16.03200164 28.08594944 -16.91018264 30.35495711 -17.7890625 32.625 C-18.36108558 34.14519077 -18.9314377 35.66601149 -19.5 37.1875 C-19.77956543 37.90574951 -20.05913086 38.62399902 -20.34716797 39.36401367 C-21.8484438 43.26158493 -21.8484438 43.26158493 -21.17578125 47.23828125 C-20.78777344 47.81964844 -20.39976562 48.40101563 -20 49 C-19.44659294 52.67979761 -19.59991847 55.95978803 -20.9375 59.4375 C-24.30830303 61.99113866 -27.8352061 62.40845614 -32 62 C-35.11089806 60.03188082 -36.56344865 58.66896938 -37.5078125 55.05859375 C-37.77821889 51.96067702 -37.68249366 49.88724175 -35.75 47.375 C-33.11787275 45.05872802 -31.54617865 44 -28 44 C-27.75672974 43.15538208 -27.75672974 43.15538208 -27.50854492 42.29370117 C-25.33442671 34.8856771 -22.89247811 27.58843826 -20.3125 20.3125 C-19.91611328 19.12849609 -19.51972656 17.94449219 -19.11132812 16.72460938 C-15.9109035 7.78445609 -11.07201237 -2.08905894 0 0 Z " fill="#5977FF" transform="translate(271,209)"/>
<path d="M0 0 C7.59064664 0.48701051 14.67059167 1.99763587 22 4 C21.67 5.65 21.34 7.3 21 9 C20.37351563 8.9278125 19.74703125 8.855625 19.1015625 8.78125 C17.87566406 8.64203125 17.87566406 8.64203125 16.625 8.5 C15.81289062 8.4071875 15.00078125 8.314375 14.1640625 8.21875 C12.03087175 7.96647649 12.03087175 7.96647649 10 8 C10.6496875 8.53109375 11.299375 9.0621875 11.96875 9.609375 C13.22171875 10.66898438 13.22171875 10.66898438 14.5 11.75 C15.3353125 12.44609375 16.170625 13.1421875 17.03125 13.859375 C19 16 19 16 19 20 C14.71 20 10.42 20 6 20 C9.63 22.31 13.26 24.62 17 27 C16.67 28.65 16.34 30.3 16 32 C13.30326081 30.70369101 10.81034386 29.2862657 8.328125 27.6171875 C7.66425781 27.17246094 7.00039062 26.72773438 6.31640625 26.26953125 C5.63449219 25.80933594 4.95257813 25.34914062 4.25 24.875 C3.55261719 24.40707031 2.85523438 23.93914062 2.13671875 23.45703125 C0.42307474 22.30677705 -1.28865316 21.15366914 -3 20 C-2.67 18.02 -2.34 16.04 -2 14 C1.96 14 5.92 14 10 14 C9.278125 13.49210938 8.55625 12.98421875 7.8125 12.4609375 C6.884375 11.77257812 5.95625 11.08421875 5 10.375 C4.071875 9.70210937 3.14375 9.02921875 2.1875 8.3359375 C0 6 0 6 -0.3125 2.7265625 C-0.209375 1.82679688 -0.10625 0.92703125 0 0 Z " fill="#0F0F0F" transform="translate(175,227)"/>
<path d="M0 0 C3.49668279 1.30124646 6.43241463 3.08296837 9.046875 5.76171875 C9.671875 8.88671875 9.671875 8.88671875 9.046875 11.76171875 C7.44157117 13.83565165 6.42798764 14.65263216 3.890625 15.37890625 C3.1171875 15.46398437 2.34375 15.5490625 1.546875 15.63671875 C0.38671875 15.78753906 0.38671875 15.78753906 -0.796875 15.94140625 C-2.953125 15.76171875 -2.953125 15.76171875 -4.734375 14.39453125 C-5.953125 12.76171875 -5.953125 12.76171875 -5.953125 10.76171875 C-6.64148438 11.32052734 -6.64148438 11.32052734 -7.34375 11.890625 C-7.95734375 12.36371094 -8.5709375 12.83679688 -9.203125 13.32421875 C-9.80640625 13.79988281 -10.4096875 14.27554688 -11.03125 14.765625 C-12.953125 15.76171875 -12.953125 15.76171875 -15.1875 15.4140625 C-15.77015625 15.19878906 -16.3528125 14.98351562 -16.953125 14.76171875 C-15.4145342 10.95435846 -13.07477784 8.8230233 -10.015625 6.13671875 C-9.14035156 5.36070312 -8.26507813 4.5846875 -7.36328125 3.78515625 C-2.49250478 -0.30408558 -2.49250478 -0.30408558 0 0 Z " fill="#0D0D0D" transform="translate(301.953125,193.23828125)"/>
<path d="M0 0 C3.0625 2.25 3.0625 2.25 5 5 C4.8125 7.3125 4.8125 7.3125 4 9 C2.68 8.67 1.36 8.34 0 8 C0 7.01 0 6.02 0 5 C-2.31 4.67 -4.62 4.34 -7 4 C-6.21222541 7.28978463 -6.21222541 7.28978463 -2.9375 9.375 C0 12 0 12 0.6875 14.5625 C-0.32104898 18.13826457 -1.80668681 19.16554348 -5 21 C-9.29986898 21.62543549 -11.50104833 21.23586806 -15.4375 19.375 C-18 17 -18 17 -18.375 13.75 C-18.25125 12.8425 -18.1275 11.935 -18 11 C-15.625 11.25 -15.625 11.25 -13 12 C-11.6875 14.0625 -11.6875 14.0625 -11 16 C-9.35 16 -7.7 16 -6 16 C-7.49097658 12.2047869 -9.75700849 10.38957269 -13 8 C-12.68762196 5.11050316 -12.35661121 3.41366901 -10.4375 1.1875 C-6.95524303 -0.50898417 -3.74486942 -0.79930019 0 0 Z " fill="#101010" transform="translate(293,178)"/>
<path d="M0 0 C3.67838658 1.0700761 5.18617377 1.93819632 7.4375 5 C7.4375 5.99 7.4375 6.98 7.4375 8 C8.7575 8.66 10.0775 9.32 11.4375 10 C11.4375 10.66 11.4375 11.32 11.4375 12 C9.69720698 12.89415055 7.9447985 13.76475178 6.1875 14.625 C5.21296875 15.11226562 4.2384375 15.59953125 3.234375 16.1015625 C0.4375 17 0.4375 17 -1.921875 16.1484375 C-2.46328125 15.76945313 -3.0046875 15.39046875 -3.5625 15 C-3.5625 14.01 -3.5625 13.02 -3.5625 12 C-4.201875 11.690625 -4.84125 11.38125 -5.5 11.0625 C-7.5625 10 -7.5625 10 -8.5625 9 C-8.9375 6.6875 -8.9375 6.6875 -8.5625 4 C-5.7297093 0.73799859 -4.35236486 0 0 0 Z " fill="#0D0D0D" transform="translate(315.5625,208)"/>
<path d="M0 0 C1.65 0 3.3 0 5 0 C4.69078116 1.45903258 4.37751201 2.91720722 4.0625 4.375 C3.88847656 5.18710938 3.71445312 5.99921875 3.53515625 6.8359375 C3 9 3 9 2 11 C3.11375 10.79375 4.2275 10.5875 5.375 10.375 C6.57125 10.25125 7.7675 10.1275 9 10 C9.66 10.66 10.32 11.32 11 12 C10.61650247 16.21847279 9.42009551 20.02373258 8 24 C6.35 24 4.7 24 3 24 C3.66 20.7 4.32 17.4 5 14 C0.83174571 15.95221552 0.83174571 15.95221552 -0.75 19.625 C-1.1625 20.73875 -1.575 21.8525 -2 23 C-3.32 23 -4.64 23 -6 23 C-5.38334864 17.60607261 -4.12077204 12.71604717 -2.4375 7.5625 C-2.20353516 6.83095703 -1.96957031 6.09941406 -1.72851562 5.34570312 C-1.15732778 3.56219821 -0.57936877 1.78086417 0 0 Z " fill="#101010" transform="translate(263,170)"/>
<path d="M0 0 C2.9375 2.125 2.9375 2.125 5 5 C5.49661404 8.60045178 5.7524155 10.83375598 3.75 13.9375 C2 15 2 15 -2 15 C-2.33 11.37 -2.66 7.74 -3 4 C-3.99 4.495 -3.99 4.495 -5 5 C-5.65213292 7.02463255 -5.65213292 7.02463255 -6 9 C-5.34 9 -4.68 9 -4 9 C-4 10.65 -4 12.3 -4 14 C-7.16115776 12.63016497 -7.9927092 12.0109362 -10 9 C-10.53507194 3.00719424 -10.53507194 3.00719424 -8.9375 0 C-5.68522641 -1.67859282 -3.44567596 -0.9505313 0 0 Z " fill="#212121" transform="translate(332,244)"/>
<path d="M0 0 C1.2684375 0.433125 1.2684375 0.433125 2.5625 0.875 C2.8925 2.525 3.2225 4.175 3.5625 5.875 C2.99660156 6.14054688 2.43070313 6.40609375 1.84765625 6.6796875 C1.11417969 7.03289062 0.38070312 7.38609375 -0.375 7.75 C-1.47134766 8.27207031 -1.47134766 8.27207031 -2.58984375 8.8046875 C-4.60082459 9.7434977 -4.60082459 9.7434977 -5.4375 11.875 C-2.10937429 11.30118522 -0.73907545 10.28119252 1.5625 7.875 C2.2225 7.875 2.8825 7.875 3.5625 7.875 C3.4375 10.125 3.4375 10.125 2.5625 12.875 C-0.41615387 15.4474738 -2.18817608 16.90339373 -6.1875 16.8125 C-8.4375 15.875 -8.4375 15.875 -10.4375 12.875 C-11 9.5625 -11 9.5625 -10.4375 5.875 C-7.52794088 1.95925329 -4.94983554 -0.17999402 0 0 Z " fill="#0E0E0E" transform="translate(232.4375,184.125)"/>
<path d="M0 0 C3.68005371 3.42202773 5.84931039 7.5411643 8.3125 11.875 C9.03276367 13.07962891 9.03276367 13.07962891 9.76757812 14.30859375 C13.16315191 20.29150606 13.16315191 20.29150606 12.29296875 24.0703125 C11.86628906 24.70710938 11.43960938 25.34390625 11 26 C7 21.25 7 21.25 7 19 C6.32453125 18.80664062 5.6490625 18.61328125 4.953125 18.4140625 C4.06109375 18.15367187 3.1690625 17.89328125 2.25 17.625 C0.92742187 17.24214844 0.92742187 17.24214844 -0.421875 16.8515625 C-2.76080572 16.0790066 -4.83442562 15.16374324 -7 14 C-6.67 12.68 -6.34 11.36 -6 10 C-5.05125 10.165 -4.1025 10.33 -3.125 10.5 C-0.19831099 11.0526635 -0.19831099 11.0526635 2 11 C1.505 10.278125 1.01 9.55625 0.5 8.8125 C-1.08422749 5.84207346 -1.3668038 4.3012342 -1 1 C-0.67 0.67 -0.34 0.34 0 0 Z " fill="#121212" transform="translate(194,210)"/>
<path d="M0 0 C2.0625 0.4375 2.0625 0.4375 4 1 C4 1.99 4 2.98 4 4 C3.01 4.66 2.02 5.32 1 6 C1.73753396 10.85037041 3.72716656 14.3825636 6.13671875 18.59765625 C7 21 7 21 6.14453125 23.30859375 C5.76683594 23.86675781 5.38914063 24.42492187 5 25 C4.34 25 3.68 25 3 25 C0.69 20.38 -1.62 15.76 -4 11 C-4.99 11.66 -5.98 12.32 -7 13 C-7.99 13 -8.98 13 -10 13 C-10.33 11.68 -10.66 10.36 -11 9 C-9.93458984 8.15115234 -9.93458984 8.15115234 -8.84765625 7.28515625 C-7.92855469 6.55167969 -7.00945312 5.81820312 -6.0625 5.0625 C-5.14597656 4.33160156 -4.22945312 3.60070312 -3.28515625 2.84765625 C-1.59148731 1.48061289 -1.59148731 1.48061289 0 0 Z " fill="#0D0D0D" transform="translate(211,184)"/>
<path d="M0 0 C1.9375 1.375 1.9375 1.375 3 3 C3 3.66 3 4.32 3 5 C0.03 5 -2.94 5 -6 5 C-6.33 6.98 -6.66 8.96 -7 11 C-5.35 10.67 -3.7 10.34 -2 10 C-2 9.34 -2 8.68 -2 8 C-0.68 8 0.64 8 2 8 C0.55172414 12.5862069 0.55172414 12.5862069 -1.75 14.3125 C-4.62974455 15.19242195 -7.0060751 15.2603413 -10 15 C-12 13 -12 13 -12.4375 9.1875 C-12.338261 5.78236185 -11.97965344 4.970405 -9.9375 2 C-6.28670848 -0.48564529 -4.33453498 -0.64215333 0 0 Z " fill="#141414" transform="translate(252,180)"/>
<path d="M0 0 C3.44488255 0.09412247 4.20416367 0.44930344 7.1875 2.5625 C9.50631474 5.89579619 9.71731019 7.46392355 9.1875 11.4375 C8.8575 12.0975 8.5275 12.7575 8.1875 13.4375 C7.1975 13.4375 6.2075 13.4375 5.1875 13.4375 C4.8575 11.1275 4.5275 8.8175 4.1875 6.4375 C2.5375 6.1075 0.8875 5.7775 -0.8125 5.4375 C-1.26468674 9.31621033 -1.26468674 9.31621033 0.6875 11.0625 C1.1825 11.51625 1.6775 11.97 2.1875 12.4375 C2.1875 13.0975 2.1875 13.7575 2.1875 14.4375 C-0.0625 14.3125 -0.0625 14.3125 -2.8125 13.4375 C-5.39401947 10.4483722 -6.87013581 8.70548785 -6.6875 4.6875 C-5.17030216 0.78613412 -4.21083374 0.48321043 0 0 Z " fill="#0D0D0D" transform="translate(323.8125,225.5625)"/>
<path d="M0 0 C2.33294775 -0.04241723 4.66702567 -0.04092937 7 0 C8 1 8 1 8.25 4.4375 C8.1675 5.613125 8.085 6.78875 8 8 C4.5647952 10.29013653 3.014669 10.17842973 -1 10 C-0.67 6.7 -0.34 3.4 0 0 Z " fill="#323232" transform="translate(315,297)"/>
<path d="M0 0 C1.3303125 0.37125 1.3303125 0.37125 2.6875 0.75 C3.0175 2.4 3.3475 4.05 3.6875 5.75 C1.7075 6.74 -0.2725 7.73 -2.3125 8.75 C-2.3125 8.09 -2.3125 7.43 -2.3125 6.75 C-3.6325 7.08 -4.9525 7.41 -6.3125 7.75 C-6.6425 7.09 -6.9725 6.43 -7.3125 5.75 C-8.3025 6.41 -9.2925 7.07 -10.3125 7.75 C-8.37749359 2.82452914 -5.49271823 -0.41454477 0 0 Z " fill="#171717" transform="translate(232.3125,184.25)"/>
<path d="M0 0 C2.31 0 4.62 0 7 0 C7 1.98 7 3.96 7 6 C5.35 6.33 3.7 6.66 2 7 C1.67 7.99 1.34 8.98 1 10 C0.34 10 -0.32 10 -1 10 C-0.67 6.7 -0.34 3.4 0 0 Z " fill="#4F4F4F" transform="translate(170,300)"/>
<path d="M0 0 C1.4540625 0.0309375 1.4540625 0.0309375 2.9375 0.0625 C2.421875 0.805 1.90625 1.5475 1.375 2.3125 C-0.32363957 4.88928075 -0.32363957 4.88928075 0.3125 7.3125 C0.51875 7.89 0.725 8.4675 0.9375 9.0625 C-0.0625 10.0625 -0.0625 10.0625 -2.625 10.125 C-3.429375 10.104375 -4.23375 10.08375 -5.0625 10.0625 C-4.92200482 8.58281676 -4.77495174 7.10375484 -4.625 5.625 C-4.54378906 4.80128906 -4.46257812 3.97757812 -4.37890625 3.12890625 C-3.8690239 -0.20106615 -3.4903173 0.07123097 0 0 Z " fill="#454545" transform="translate(232.0625,299.9375)"/>
<path d="M0 0 C3.96 0 7.92 0 12 0 C12 2.31 12 4.62 12 7 C11.34 7 10.68 7 10 7 C10 5.02 10 3.04 10 1 C9.01 1.495 9.01 1.495 8 2 C7.34444881 4.52733235 7.34444881 4.52733235 7 7 C6.34 7 5.68 7 5 7 C5 5.02 5 3.04 5 1 C4.01 1.495 4.01 1.495 3 2 C2.34444881 4.52733235 2.34444881 4.52733235 2 7 C1.34 7 0.68 7 0 7 C0 4.69 0 2.38 0 0 Z " fill="#242424" transform="translate(348,300)"/>
<path d="M0 0 C3.96 0 7.92 0 12 0 C12 2.31 12 4.62 12 7 C11.34 7 10.68 7 10 7 C10 5.02 10 3.04 10 1 C9.01 1.495 9.01 1.495 8 2 C7.34444881 4.52733235 7.34444881 4.52733235 7 7 C6.34 7 5.68 7 5 7 C5 5.02 5 3.04 5 1 C4.01 1.495 4.01 1.495 3 2 C2.34444881 4.52733235 2.34444881 4.52733235 2 7 C1.34 7 0.68 7 0 7 C0 4.69 0 2.38 0 0 Z " fill="#242424" transform="translate(156,300)"/>
<path d="M0 0 C0.78375 0.04125 1.5675 0.0825 2.375 0.125 C2.375 2.105 2.375 4.085 2.375 6.125 C0.395 6.455 -1.585 6.785 -3.625 7.125 C-4.25 4.75 -4.25 4.75 -4.625 2.125 C-2.625 0.125 -2.625 0.125 0 0 Z " fill="#545454" transform="translate(252.625,299.875)"/>
<path d="M0 0 C0.78375 0.04125 1.5675 0.0825 2.375 0.125 C2.375 2.105 2.375 4.085 2.375 6.125 C0.395 6.455 -1.585 6.785 -3.625 7.125 C-4.25 4.75 -4.25 4.75 -4.625 2.125 C-2.625 0.125 -2.625 0.125 0 0 Z " fill="#545454" transform="translate(183.625,299.875)"/>
<path d="M0 0 C0.78375 0.04125 1.5675 0.0825 2.375 0.125 C3 1.9375 3 1.9375 3.375 4.125 C2.385 5.61 2.385 5.61 1.375 7.125 C-1.25 7.3125 -1.25 7.3125 -3.625 7.125 C-4.25 4.75 -4.25 4.75 -4.625 2.125 C-2.625 0.125 -2.625 0.125 0 0 Z " fill="#3F3F3F" transform="translate(288.625,299.875)"/>
<path d="M0 0 C1.98 0 3.96 0 6 0 C4.68 0.33 3.36 0.66 2 1 C2 1.99 2 2.98 2 4 C2.99 4 3.98 4 5 4 C5 4.66 5 5.32 5 6 C3.68 6 2.36 6 1 6 C1 6.66 1 7.32 1 8 C2.32 8 3.64 8 5 8 C5 8.66 5 9.32 5 10 C3.02 10 1.04 10 -1 10 C-1.125 2.25 -1.125 2.25 0 0 Z " fill="#292929" transform="translate(149,297)"/>
<path d="M0 0 C1.2065625 0.0309375 1.2065625 0.0309375 2.4375 0.0625 C3.0625 2.4375 3.0625 2.4375 3.4375 5.0625 C2.7775 5.7225 2.1175 6.3825 1.4375 7.0625 C-0.6875 6.6875 -0.6875 6.6875 -2.5625 6.0625 C-2.94468767 4.40635343 -3.27645102 2.73792976 -3.5625 1.0625 C-2.5625 0.0625 -2.5625 0.0625 0 0 Z " fill="#F1F4FF" transform="translate(242.5625,258.9375)"/>
<path d="M0 0 C1.2065625 0.0309375 1.2065625 0.0309375 2.4375 0.0625 C3.0625 2.4375 3.0625 2.4375 3.4375 5.0625 C2.7775 5.7225 2.1175 6.3825 1.4375 7.0625 C-0.6875 6.6875 -0.6875 6.6875 -2.5625 6.0625 C-2.94468767 4.40635343 -3.27645102 2.73792976 -3.5625 1.0625 C-2.5625 0.0625 -2.5625 0.0625 0 0 Z " fill="#FFEFEF" transform="translate(245.5625,211.9375)"/>
<path d="M0 0 C0.66 0 1.32 0 2 0 C2 1.32 2 2.64 2 4 C3.32 4 4.64 4 6 4 C6 6.31 6 8.62 6 11 C5.34 11 4.68 11 4 11 C4 9.02 4 7.04 4 5 C3.01 5.495 3.01 5.495 2 6 C1.34444881 8.52733235 1.34444881 8.52733235 1 11 C0.34 11 -0.32 11 -1 11 C-1.14285714 3.57142857 -1.14285714 3.57142857 0 0 Z " fill="#2B2B2B" transform="translate(303,296)"/>
<path d="M0 0 C0.625 1.875 0.625 1.875 1 4 C0.34 4.66 -0.32 5.32 -1 6 C-3.625 5.625 -3.625 5.625 -6 5 C-6 3.35 -6 1.7 -6 0 C-3.50907189 -1.24546405 -2.58919267 -0.7767578 0 0 Z " fill="#FFF2F2" transform="translate(268,282)"/>
<path d="M0 0 C1.2065625 0.0309375 1.2065625 0.0309375 2.4375 0.0625 C3.0625 1.875 3.0625 1.875 3.4375 4.0625 C2.4475 5.5475 2.4475 5.5475 1.4375 7.0625 C-0.2125 6.7325 -1.8625 6.4025 -3.5625 6.0625 C-3.605221 4.39638095 -3.60313832 2.72867115 -3.5625 1.0625 C-2.5625 0.0625 -2.5625 0.0625 0 0 Z " fill="#363636" transform="translate(334.5625,299.9375)"/>
<path d="M0 0 C1.2065625 0.0309375 1.2065625 0.0309375 2.4375 0.0625 C3.0625 1.875 3.0625 1.875 3.4375 4.0625 C2.4475 5.5475 2.4475 5.5475 1.4375 7.0625 C-0.2125 6.7325 -1.8625 6.4025 -3.5625 6.0625 C-3.605221 4.39638095 -3.60313832 2.72867115 -3.5625 1.0625 C-2.5625 0.0625 -2.5625 0.0625 0 0 Z " fill="#363636" transform="translate(203.5625,299.9375)"/>
<path d="M0 0 C1.2065625 0.0309375 1.2065625 0.0309375 2.4375 0.0625 C3.0975 1.3825 3.7575 2.7025 4.4375 4.0625 C3.7775 4.7225 3.1175 5.3825 2.4375 6.0625 C-0.1875 5.6875 -0.1875 5.6875 -2.5625 5.0625 C-3.125 3.125 -3.125 3.125 -3.5625 1.0625 C-2.5625 0.0625 -2.5625 0.0625 0 0 Z " fill="#E6E6E6" transform="translate(315.5625,212.9375)"/>
<path d="M0 0 C1.65 0 3.3 0 5 0 C5 2.31 5 4.62 5 7 C3.02 7 1.04 7 -1 7 C-1 5.68 -1 4.36 -1 3 C0.32 3 1.64 3 3 3 C3 2.34 3 1.68 3 1 C1.68 1.33 0.36 1.66 -1 2 C-0.67 1.34 -0.34 0.68 0 0 Z " fill="#2D2D2D" transform="translate(341,300)"/>
<path d="M0 0 C1.65 0 3.3 0 5 0 C5.625 1.875 5.625 1.875 6 4 C5.34 4.66 4.68 5.32 4 6 C1.375 5.625 1.375 5.625 -1 5 C-0.67 3.35 -0.34 1.7 0 0 Z " fill="#ECECEC" transform="translate(300,199)"/>
<path d="M0 0 C0.66 0 1.32 0 2 0 C2 1.65 2 3.3 2 5 C2.99 5 3.98 5 5 5 C5 3.35 5 1.7 5 0 C5.66 0 6.32 0 7 0 C7 2.31 7 4.62 7 7 C4.69 7 2.38 7 0 7 C0 4.69 0 2.38 0 0 Z " fill="#2A2A2A" transform="translate(257,300)"/>
<path d="M0 0 C1.2065625 0.0309375 1.2065625 0.0309375 2.4375 0.0625 C2.4375 1.7125 2.4375 3.3625 2.4375 5.0625 C0.7875 5.3925 -0.8625 5.7225 -2.5625 6.0625 C-2.94468767 4.40635343 -3.27645102 2.73792976 -3.5625 1.0625 C-2.5625 0.0625 -2.5625 0.0625 0 0 Z " fill="#FCFDFF" transform="translate(306.5625,278.9375)"/>
<path d="M0 0 C0.66 0 1.32 0 2 0 C2.33 0.99 2.66 1.98 3 3 C3.66 2.01 4.32 1.02 5 0 C5.66 0 6.32 0 7 0 C5.66749209 3.5875213 4.169283 6.8364623 2 10 C1.34 10 0.68 10 0 10 C0 6.7 0 3.4 0 0 Z " fill="#232323" transform="translate(240,300)"/>
<path d="M0 0 C1.98 0.495 1.98 0.495 4 1 C4.625 2.875 4.625 2.875 5 5 C4.34 5.66 3.68 6.32 3 7 C1.68 7 0.36 7 -1 7 C-0.67 4.69 -0.34 2.38 0 0 Z " fill="#E5E5E5" transform="translate(317,298)"/>
<path d="M0 0 C0.66 0.33 1.32 0.66 2 1 C1.67 1.33 1.34 1.66 1 2 C2.32 2.33 3.64 2.66 5 3 C5 3.66 5 4.32 5 5 C3.02 5.66 1.04 6.32 -1 7 C-1.33 6.34 -1.66 5.68 -2 5 C-2.99 5.66 -3.98 6.32 -5 7 C-3.70700306 4.11562221 -2.34058637 2.12780579 0 0 Z " fill="#6D6D6D" transform="translate(227,185)"/>
<path d="M0 0 C0.78375 0.04125 1.5675 0.0825 2.375 0.125 C2.375 0.785 2.375 1.445 2.375 2.125 C1.055 2.125 -0.265 2.125 -1.625 2.125 C-1.955 3.115 -2.285 4.105 -2.625 5.125 C-0.975 4.795 0.675 4.465 2.375 4.125 C2.045 5.115 1.715 6.105 1.375 7.125 C-0.275 7.125 -1.925 7.125 -3.625 7.125 C-4.25 4.75 -4.25 4.75 -4.625 2.125 C-2.625 0.125 -2.625 0.125 0 0 Z " fill="#262626" transform="translate(297.625,299.875)"/>
<path d="M0 0 C1.65 0 3.3 0 5 0 C5 0.66 5 1.32 5 2 C3.68 1.67 2.36 1.34 1 1 C1 1.66 1 2.32 1 3 C1.99 3 2.98 3 4 3 C3.67 4.32 3.34 5.64 3 7 C1.35 6.67 -0.3 6.34 -2 6 C-1.34 5.34 -0.68 4.68 0 4 C0 2.68 0 1.36 0 0 Z " fill="#262626" transform="translate(363,300)"/>
<path d="M0 0 C0.99 0 1.98 0 3 0 C3.33 0.66 3.66 1.32 4 2 C4.33 1.34 4.66 0.68 5 0 C5.66 0 6.32 0 7 0 C6.1875 2.9375 6.1875 2.9375 5 6 C4.01 6.33 3.02 6.66 2 7 C0.5393715 4.35261084 0 3.10551666 0 0 Z " fill="#1A1A1A" transform="translate(192,300)"/>
<path d="M0 0 C1.65 0 3.3 0 5 0 C5.33 1.98 5.66 3.96 6 6 C5.401875 5.67 4.80375 5.34 4.1875 5 C1.94613529 3.79212012 1.94613529 3.79212012 -1 4 C-0.67 2.68 -0.34 1.36 0 0 Z " fill="#DCDCDC" transform="translate(296,301)"/>
<path d="M0 0 C0.66 0.33 1.32 0.66 2 1 C1.67 1.99 1.34 2.98 1 4 C1 3.34 1 2.68 1 2 C-0.98491642 2.26676204 -0.98491642 2.26676204 -3 3 C-3.33 3.99 -3.66 4.98 -4 6 C-5.32 6 -6.64 6 -8 6 C-7 3 -7 3 -3.5625 1.25 C-2.386875 0.8375 -1.21125 0.425 0 0 Z " fill="#D5D5D5" transform="translate(235,190)"/>
<path d="M0 0 C0.66 0 1.32 0 2 0 C2.9765625 6.0546875 2.9765625 6.0546875 3 8 C2.34 8.66 1.68 9.32 1 10 C1 8.35 1 6.7 1 5 C0.34 5 -0.32 5 -1 5 C-0.67 3.35 -0.34 1.7 0 0 Z " fill="#CFCFCF" transform="translate(327,248)"/>
<path d="M0 0 C2 3.75 2 3.75 2 6 C3.32 6 4.64 6 6 6 C6 6.66 6 7.32 6 8 C4.02 8 2.04 8 0 8 C0 5.36 0 2.72 0 0 Z " fill="#3B3B3B" transform="translate(148,299)"/>
<path d="M0 0 C1.65 0 3.3 0 5 0 C5 0.66 5 1.32 5 2 C4.01 2 3.02 2 2 2 C2 3.65 2 5.3 2 7 C1.34 7 0.68 7 0 7 C0 4.69 0 2.38 0 0 Z " fill="#303030" transform="translate(325,300)"/>
<path d="M0 0 C1.65 0 3.3 0 5 0 C5 0.66 5 1.32 5 2 C4.01 2 3.02 2 2 2 C2 3.65 2 5.3 2 7 C1.34 7 0.68 7 0 7 C0 4.69 0 2.38 0 0 Z " fill="#303030" transform="translate(266,300)"/>
<path d="M0 0 C0.66 0.33 1.32 0.66 2 1 C2 2.65 2 4.3 2 6 C0.02 5.34 -1.96 4.68 -4 4 C-4 3.34 -4 2.68 -4 2 C-2.68 2 -1.36 2 0 2 C0 1.34 0 0.68 0 0 Z " fill="#F4F4F4" transform="translate(154,301)"/>
<path d="M0 0 C1.65 0 3.3 0 5 0 C4.2884375 0.61875 4.2884375 0.61875 3.5625 1.25 C1.83733482 3.182185 1.43415125 4.48192275 1 7 C0.34 7 -0.32 7 -1 7 C-0.67 4.69 -0.34 2.38 0 0 Z " fill="#252525" transform="translate(209,300)"/>
<path d="M0 0 C1.99954746 -0.04254356 4.00041636 -0.04080783 6 0 C7 1 7 1 7.0625 4.0625 C7.041875 5.031875 7.02125 6.00125 7 7 C6.34 6.67 5.68 6.34 5 6 C4.855625 5.34 4.71125 4.68 4.5625 4 C4.376875 3.34 4.19125 2.68 4 2 C3.01 1.67 2.02 1.34 1 1 C0.67 1.66 0.34 2.32 0 3 C0 2.01 0 1.02 0 0 Z " fill="#0D0D0D" transform="translate(316,297)"/>
<path d="M0 0 C0.66 0 1.32 0 2 0 C4 3 4 3 3.625 5.1875 C3.41875 5.785625 3.2125 6.38375 3 7 C2.34 7 1.68 7 1 7 C0.67 4.69 0.34 2.38 0 0 Z " fill="#232323" transform="translate(188,300)"/>
</svg>
