<?xml version="1.0" encoding="UTF-8"?>
<svg version="1.1" xmlns="http://www.w3.org/2000/svg" width="168" height="150">
<path d="M0 0 C55.44 0 110.88 0 168 0 C168 49.5 168 99 168 150 C112.56 150 57.12 150 0 150 C0 100.5 0 51 0 0 Z " fill="#CFDFFB" transform="translate(0,0)"/>
<path d="M0 0 C2.5 1.625 2.5 1.625 4 4 C4.71525283 8.37098953 4.50639423 10.25623347 2 13.9375 C-2.03031789 16.70834355 -4.19839142 16.40691598 -9 16 C-9.0825 16.639375 -9.165 17.27875 -9.25 17.9375 C-9.90864263 20.62695739 -10.72821125 22.75070086 -11.875 25.25 C-13.93197513 29.7547018 -15.52063535 34.27819227 -17 39 C-17.4203294 40.31648402 -17.84092542 41.63288294 -18.26171875 42.94921875 C-18.71665948 44.38264958 -19.1710829 45.81624469 -19.625 47.25 C-19.84341553 47.93586182 -20.06183105 48.62172363 -20.28686523 49.32836914 C-21.39530932 52.86253243 -22.36332508 56.34973048 -23 60 C-23.66 60 -24.32 60 -25 60 C-27.43430815 66.57263201 -28.90109517 73.08336373 -30 80 C-14.28645468 76.79909262 -1.13768481 66.16322149 11.93823242 57.36254883 C21.41141828 51 21.41141828 51 24 51 C23.505 47.04 23.505 47.04 23 43 C22.01 42.67 21.02 42.34 20 42 C19.34 38.37 18.68 34.74 18 31 C17.34 31 16.68 31 16 31 C15.60777895 29.58800422 15.23688941 28.17007236 14.875 26.75 C14.66617188 25.96109375 14.45734375 25.1721875 14.2421875 24.359375 C13.95685589 21.5796929 14.55022106 20.34112451 16 18 C16.66 18 17.32 18 18 18 C18.20753906 18.55945313 18.41507813 19.11890625 18.62890625 19.6953125 C21.12354105 26.18762566 24.11879407 32.34048033 27.31640625 38.5078125 C28.51633859 40.99676728 29.52756442 43.33409929 30.4609375 45.9140625 C32.01724103 50.19505632 33.98743425 54.19996443 36.0625 58.25 C36.41376953 58.94351563 36.76503906 59.63703125 37.12695312 60.3515625 C37.63838867 61.36089844 37.63838867 61.36089844 38.16015625 62.390625 C38.64258789 63.34473267 38.64258789 63.34473267 39.13476562 64.31811523 C39.80363786 65.6183017 40.50636539 66.90110391 41.22265625 68.17578125 C42.82207571 71.92919275 42.53453625 76.01995898 42 80 C39.89495409 83.55680172 38.91593192 84.69468936 35 86 C30.11983897 86.16000528 25.81809528 85.82260163 21 85 C20.67 85.33 20.34 85.66 20 86 C15.44422873 86.50619681 11.37789544 86.82017586 7.375 84.4375 C5.43222004 80.99348099 5.38506359 78.89459726 6 75 C8.40077952 71.75188653 10.14208601 70.31030932 13.9375 68.9375 C18.24715947 69.02545223 20.98117802 70.98117802 24 74 C24 75.65 24 77.3 24 79 C27.63 79 31.26 79 35 79 C35.88641506 72.49962288 33.40929251 68.32065393 30.3125 62.671875 C29 60 29 60 29 57 C27.68 57 26.36 57 25 57 C24.67 57.99 24.34 58.98 24 60 C21.296875 61.5078125 21.296875 61.5078125 17.75 63.125 C11.49676958 66.09000409 5.96160583 69.61281723 0.32421875 73.6484375 C-3.26919812 76.22027098 -6.9660902 78.61848955 -10.6875 81 C-11.28820312 81.38591309 -11.88890625 81.77182617 -12.5078125 82.16943359 C-17.47065053 85.33997648 -19.99038603 86.15681314 -25.9375 86.1875 C-27.18402344 86.20167969 -28.43054688 86.21585937 -29.71484375 86.23046875 C-33 86 -33 86 -36 84 C-37.66370975 79.00887074 -37.40029183 74.75280501 -35.63671875 69.8515625 C-34.0036405 65.12423072 -32.76883246 60.3503901 -31.5625 55.5 C-30.09507964 49.76573021 -28.59644382 44.30221267 -25.96875 38.97265625 C-24.82848439 36.65074443 -23.88448896 34.28193026 -22.9375 31.875 C-21.35992822 27.88430458 -19.71097037 23.93523186 -18 20 C-17.34 20 -16.68 20 -16 20 C-15.92523438 18.81921875 -15.85046875 17.6384375 -15.7734375 16.421875 C-15.64208918 14.86445916 -15.50919541 13.30717311 -15.375 11.75 C-15.30732422 10.58404297 -15.30732422 10.58404297 -15.23828125 9.39453125 C-14.8273928 5.02417225 -14.5574525 3.50201523 -11.171875 0.453125 C-6.93149103 -1.48951396 -4.36666631 -1.43078002 0 0 Z " fill="#FC4244" transform="translate(77,50)"/>
<path d="M0 0 C0 0.66 0 1.32 0 2 C0.70125 2.185625 1.4025 2.37125 2.125 2.5625 C7.24472551 5.12236275 10.271149 9.17787249 12.375 14.4375 C12.58125 15.283125 12.7875 16.12875 13 17 C13.66 17 14.32 17 15 17 C15.49628906 18.06476563 15.99257812 19.12953125 16.50390625 20.2265625 C21.32369792 30.53625814 26.21962705 40.80068511 31.51171875 50.87890625 C34.91632314 57.42472156 34.91632314 57.42472156 35.5 61.4375 C35.74092491 64.24965753 35.74092491 64.24965753 38.5 65.75 C39.325 66.1625 40.15 66.575 41 67 C42.20272819 69.40545638 42.10071472 70.94996953 42.0625 73.625 C42.05347656 74.44226563 42.04445313 75.25953125 42.03515625 76.1015625 C42.02355469 76.72804688 42.01195312 77.35453125 42 78 C40.02 78.99 40.02 78.99 38 80 C38 80.66 38 81.32 38 82 C30.83116883 82.47792208 30.83116883 82.47792208 27.5 80.5625 C25.30287982 76.80908635 25.49885557 73.25561995 26 69 C26.33 68.34 26.66 67.68 27 67 C27.99 67 28.98 67 30 67 C27.26873158 58.35098332 23.6998229 50.25839007 19.57641602 42.19360352 C17.39733962 37.89720593 15.55475466 33.55344976 13.84375 29.0546875 C12.81159059 26.54118819 11.40565382 24.31932881 10 22 C10 21.01 10 20.02 10 19 C9.34 19 8.68 19 8 19 C7.68546875 18.37351562 7.3709375 17.74703125 7.046875 17.1015625 C6.61890625 16.28429687 6.1909375 15.46703125 5.75 14.625 C5.33234375 13.81289062 4.9146875 13.00078125 4.484375 12.1640625 C2.82039171 9.73815002 1.74354809 8.97909064 -1 8 C-4.43051168 7.69370431 -6.99721755 7.57023609 -10.1875 8.9375 C-17.70606721 17.49311096 -21.21364852 33.05947287 -24 44 C-23.65555119 46.47266765 -23.65555119 46.47266765 -23 49 C-22.68542099 53.31058271 -22.51578356 56.27367535 -25 60 C-25.66 60 -26.32 60 -27 60 C-27 60.66 -27 61.32 -27 62 C-34.24637681 62.48309179 -34.24637681 62.48309179 -37.4375 60.4375 C-39.54781557 57.1454077 -40 54.91300627 -40 51 C-38.4375 47.625 -38.4375 47.625 -36 45 C-33.03 44.505 -33.03 44.505 -30 44 C-29.01 40.04 -28.02 36.08 -27 32 C-26.34 32 -25.68 32 -25 32 C-24.92523438 31.46375 -24.85046875 30.9275 -24.7734375 30.375 C-23.80987207 24.63139428 -22.20450406 19.22109724 -20.25 13.75 C-20.02231934 13.07710937 -19.79463867 12.40421875 -19.56005859 11.7109375 C-17.65951464 6.5785813 -15.14774059 3.58312669 -11 0 C-6.94952424 -1.35015859 -4.2079832 -0.62084998 0 0 Z " fill="#5E7CFF" transform="translate(100,52)"/>
<path d="M0 0 C1.32 0 2.64 0 4 0 C5.18396099 2.34677981 6.34688293 4.70061349 7.5 7.0625 C7.83386719 7.71927734 8.16773437 8.37605469 8.51171875 9.05273438 C10.67071556 13.52494204 11.46512509 16.92884449 11 22 C10 23 10 23 6.6875 23.125 C0.78367876 22.92487047 0.78367876 22.92487047 -1 22 C-1.4640625 20.576875 -1.4640625 20.576875 -1.9375 19.125 C-2.74496647 15.9036405 -2.74496647 15.9036405 -5.1875 14.0625 C-8.80385047 12.69632315 -11.26999238 13.19548855 -15 14 C-15 13.34 -15 12.68 -15 12 C-16.32 12.33 -17.64 12.66 -19 13 C-15.78640201 9.32500381 -12.17394061 7.3927801 -7.8125 5.375 C-3.15969692 3.5436701 -3.15969692 3.5436701 0 0 Z " fill="#D5DBF4" transform="translate(102,107)"/>
<path d="M0 0 C1.89611434 0.14213297 3.79188394 0.28886907 5.6875 0.4375 C6.74324219 0.51871094 7.79898437 0.59992188 8.88671875 0.68359375 C11.65086297 0.96451681 14.28945741 1.40156852 17 2 C17 2.66 17 3.32 17 4 C17.66 4 18.32 4 19 4 C19 4.99 19 5.98 19 7 C13.555 6.505 13.555 6.505 8 6 C11.414531 9.53705325 11.414531 9.53705325 15.3125 12.5 C17 14 17 14 17.25 16.6875 C17.12625 17.8321875 17.12625 17.8321875 17 19 C8.42857143 19.14285714 8.42857143 19.14285714 5 18 C5 18.66 5 19.32 5 20 C6.98 20.66 8.96 21.32 11 22 C11 22.66 11 23.32 11 24 C12.32 24.33 13.64 24.66 15 25 C15 26.65 15 28.3 15 30 C11.20810923 28.63410386 8.15618622 26.89545351 4.875 24.5625 C4.02679687 23.96566406 3.17859375 23.36882812 2.3046875 22.75390625 C-1.74009111 19.67576117 -1.74009111 19.67576117 -3 18 C-3 16.35 -3 14.7 -3 13 C1.62 13.66 6.24 14.32 11 15 C11 14.34 11 13.68 11 13 C10.41734375 12.72800781 9.8346875 12.45601562 9.234375 12.17578125 C7.02203836 11.01159711 5.19060666 9.75905966 3.25 8.1875 C2.63640625 7.70667969 2.0228125 7.22585937 1.390625 6.73046875 C-0.46246539 4.42451638 -0.25415037 2.87874165 0 0 Z " fill="#25272A" transform="translate(8,65)"/>
<path d="M0 0 C2.25 0.25 2.25 0.25 4 1 C4 1.99 4 2.98 4 4 C4.78375 4.12375 5.5675 4.2475 6.375 4.375 C9 5 9 5 11 7 C10.8125 10 10.8125 10 10 13 C6.79619983 15.13586678 5.98060033 15.23132175 2.3125 15.125 C1.50425781 15.10695313 0.69601563 15.08890625 -0.13671875 15.0703125 C-1.05904297 15.03550781 -1.05904297 15.03550781 -2 15 C-2.66 13.68 -3.32 12.36 -4 11 C-5.94999129 11.19471111 -5.94999129 11.19471111 -8 12 C-9.28436734 13.9837767 -9.28436734 13.9837767 -10 16 C-11.32 15.67 -12.64 15.34 -14 15 C-14 14.01 -14 13.02 -14 12 C-11.953125 10.09765625 -11.953125 10.09765625 -9.25 8.0625 C-6.59223555 6.04586294 -4.12969491 4.13455847 -1.8125 1.73046875 C-1.214375 1.15941406 -0.61625 0.58835937 0 0 Z " fill="#26282A" transform="translate(126,31)"/>
<path d="M0 0 C0 0.66 0 1.32 0 2 C0.9590625 2.2165625 0.9590625 2.2165625 1.9375 2.4375 C4 3 4 3 5 4 C5.04063832 5.66617115 5.042721 7.33388095 5 9 C4.01 8.67 3.02 8.34 2 8 C2 7.01 2 6.02 2 5 C-0.31 5 -2.62 5 -5 5 C-4.25799346 8.1908205 -4.25799346 8.1908205 -1.4375 9.875 C1 12 1 12 1.5 14.5625 C0.91023506 17.43760408 0.2758561 18.20380864 -2 20 C-6.46554043 20.92823031 -10.08501981 20.50417276 -14.0625 18.3125 C-16 16 -16 16 -16.3125 13.25 C-16.209375 12.5075 -16.10625 11.765 -16 11 C-14.35 11 -12.7 11 -11 11 C-10.67 12.65 -10.34 14.3 -10 16 C-7.69 16.33 -5.38 16.66 -3 17 C-3 15.68 -3 14.36 -3 13 C-3.8971875 12.8453125 -3.8971875 12.8453125 -4.8125 12.6875 C-7.42368447 11.86684202 -8.44318272 11.25738505 -10 9 C-10.1875 5.8125 -10.1875 5.8125 -10 3 C-9.34 3 -8.68 3 -8 3 C-8 2.34 -8 1.68 -8 1 C-5.29120665 -0.35439668 -2.99066732 -0.06501451 0 0 Z " fill="#212325" transform="translate(118,17)"/>
<path d="M0 0 C1.32 0 2.64 0 4 0 C3.34 3.3 2.68 6.6 2 10 C2.969375 9.979375 3.93875 9.95875 4.9375 9.9375 C8 10 8 10 9 11 C8.96219927 12.64869317 8.84529698 14.29594032 8.6875 15.9375 C8.56955078 17.28134766 8.56955078 17.28134766 8.44921875 18.65234375 C8 21 8 21 6 23 C5.01 23 4.02 23 3 23 C3.495 18.545 3.495 18.545 4 14 C1.50995496 14.56076801 1.50995496 14.56076801 -1 16 C-2.37189827 19.02982306 -2.37189827 19.02982306 -3 22 C-3.99 22 -4.98 22 -6 22 C-5.8014043 13.83952201 -3.42541581 7.35642804 0 0 Z " fill="#0A0A0A" transform="translate(92,10)"/>
<path d="M0 0 C3.04444696 3.61696464 5.46830488 7.29827103 7.75 11.4375 C8.67039062 13.07525391 8.67039062 13.07525391 9.609375 14.74609375 C11.05803894 18.13580461 11.28553163 20.35947166 11 24 C10.01 23.67 9.02 23.34 8 23 C7.72414063 22.19175781 7.44828125 21.38351563 7.1640625 20.55078125 C6.23107814 17.75723528 6.23107814 17.75723528 3.3984375 16.85546875 C2.40070312 16.63503906 1.40296875 16.41460937 0.375 16.1875 C-1.12933594 15.83751953 -1.12933594 15.83751953 -2.6640625 15.48046875 C-3.43492188 15.32191406 -4.20578125 15.16335937 -5 15 C-5.33 13.02 -5.66 11.04 -6 9 C-3.03 9.495 -3.03 9.495 0 10 C-0.08378906 9.36191406 -0.16757812 8.72382812 -0.25390625 8.06640625 C-0.40666016 6.82697266 -0.40666016 6.82697266 -0.5625 5.5625 C-0.66691406 4.73878906 -0.77132813 3.91507813 -0.87890625 3.06640625 C-0.91886719 2.38449219 -0.95882813 1.70257813 -1 1 C-0.67 0.67 -0.34 0.34 0 0 Z " fill="#2E3033" transform="translate(26,48)"/>
<path d="M0 0 C-0.33 1.65 -0.66 3.3 -1 5 C-3.31 5.66 -5.62 6.32 -8 7 C-8 7.99 -8 8.98 -8 10 C-6.05925139 9.72382467 -6.05925139 9.72382467 -4 9 C-3.34 8.01 -2.68 7.02 -2 6 C-1.01 6 -0.02 6 1 6 C0.39958891 9.36230209 -0.47677724 11.64499209 -3 14 C-6.44485259 14.43060657 -8.84506242 14.63335287 -11.9375 12.9375 C-13.63902633 9.8347167 -13.42519574 7.46230815 -13 4 C-9.16177964 -1.0293922 -5.94291524 -1.18858305 0 0 Z " fill="#252628" transform="translate(65,25)"/>
<path d="M0 0 C2.84309488 0.10338527 4.07353474 0.34669411 6.625 1.75 C8.94220603 5.80511056 8.4385704 9.81080864 8.125 14.375 C6.145 14.705 4.165 15.035 2.125 15.375 C1.795 12.075 1.465 8.775 1.125 5.375 C0.135 5.045 -0.855 4.715 -1.875 4.375 C-1.215 7.345 -0.555 10.315 0.125 13.375 C-3.875 11.375 -3.875 11.375 -5.875 8.375 C-6.125 5.3125 -6.125 5.3125 -5.875 2.375 C-3.875 0.375 -3.875 0.375 0 0 Z " fill="#46484C" transform="translate(152.875,79.625)"/>
<path d="M0 0 C0.99 0.33 1.98 0.66 3 1 C3 1.99 3 2.98 3 4 C2.01 4.66 1.02 5.32 0 6 C0.97681973 9.98868058 2.00487986 13.1983287 4.1875 16.6875 C6 20 6 20 5.75 22.4375 C5.5025 22.953125 5.255 23.46875 5 24 C4.01 24 3.02 24 2 24 C0.02 20.04 -1.96 16.08 -4 12 C-5.98 12 -7.96 12 -10 12 C-9.67825238 8.79361856 -9.29628532 7.31045036 -7.0390625 4.9453125 C-6.24242187 4.34460938 -5.44578125 3.74390625 -4.625 3.125 C-3.83351563 2.50882813 -3.04203125 1.89265625 -2.2265625 1.2578125 C-1.49179687 0.84273437 -0.75703125 0.42765625 0 0 Z " fill="#2D2E30" transform="translate(42,23)"/>
<path d="M0 0 C0.90105469 0.02707031 1.80210937 0.05414063 2.73046875 0.08203125 C3.76107422 0.13423828 3.76107422 0.13423828 4.8125 0.1875 C5.06 1.30125 5.3075 2.415 5.5625 3.5625 C6.42255339 7.23365198 6.42255339 7.23365198 8.9375 8.625 C9.55625 8.810625 10.175 8.99625 10.8125 9.1875 C8.12057339 12.51282111 4.74703485 13.71204943 0.8125 15.1875 C-0.1775 15.1875 -1.1675 15.1875 -2.1875 15.1875 C-2.1875 13.8675 -2.1875 12.5475 -2.1875 11.1875 C-0.2075 10.8575 1.7725 10.5275 3.8125 10.1875 C3.8125 8.5375 3.8125 6.8875 3.8125 5.1875 C1.5025 5.1875 -0.8075 5.1875 -3.1875 5.1875 C-3.5175 6.5075 -3.8475 7.8275 -4.1875 9.1875 C-5.5075 8.8575 -6.8275 8.5275 -8.1875 8.1875 C-8.55171725 3.69548722 -8.55171725 3.69548722 -7 1.53125 C-4.56328437 -0.27528055 -2.99805979 -0.11680752 0 0 Z " fill="#26282A" transform="translate(141.1875,46.8125)"/>
<path d="M0 0 C0.66 0.33 1.32 0.66 2 1 C2 1.99 2 2.98 2 4 C-0.97 4 -3.94 4 -7 4 C-7 5.65 -7 7.3 -7 9 C-5.8553125 8.505 -5.8553125 8.505 -4.6875 8 C-2 7 -2 7 1 7 C0.67 8.32 0.34 9.64 0 11 C-1.32 11.33 -2.64 11.66 -4 12 C-4 12.66 -4 13.32 -4 14 C-6.875 14.1875 -6.875 14.1875 -10 14 C-12.48836965 10.26744552 -12.54226552 8.41559065 -12 4 C-8.41894347 -0.23215772 -5.36971627 -0.50657701 0 0 Z " fill="#2A2C2E" transform="translate(81,20)"/>
<path d="M0 0 C2.16796875 0.484375 2.16796875 0.484375 4.79296875 3.171875 C6.23668848 6.64992707 6.39926234 7.99570983 5.16796875 11.484375 C3.84796875 11.484375 2.52796875 11.484375 1.16796875 11.484375 C1.16796875 9.504375 1.16796875 7.524375 1.16796875 5.484375 C-0.81203125 5.484375 -2.79203125 5.484375 -4.83203125 5.484375 C-4.52265625 6.0825 -4.21328125 6.680625 -3.89453125 7.296875 C-2.83203125 9.484375 -2.83203125 9.484375 -1.83203125 12.484375 C-4.79378248 11.87159888 -6.21261908 11.23064978 -8.83203125 9.484375 C-9.70703125 6.546875 -9.70703125 6.546875 -9.83203125 3.484375 C-7.121183 -0.21144383 -4.31743287 -0.14086241 0 0 Z " fill="#0F1010" transform="translate(151.83203125,63.515625)"/>
<path d="M0 0 C1.89611434 0.14213297 3.79188394 0.28886907 5.6875 0.4375 C6.74324219 0.51871094 7.79898437 0.59992188 8.88671875 0.68359375 C11.65086297 0.96451681 14.28945741 1.40156852 17 2 C17 2.66 17 3.32 17 4 C17.66 4 18.32 4 19 4 C19 4.99 19 5.98 19 7 C16.02046641 6.85982174 13.04150696 6.71313658 10.0625 6.5625 C9.21236328 6.52318359 8.36222656 6.48386719 7.48632812 6.44335938 C6.67744141 6.40146484 5.86855469 6.35957031 5.03515625 6.31640625 C4.2862915 6.27974854 3.53742676 6.24309082 2.76586914 6.20532227 C1 6 1 6 0 5 C-0.04063832 3.33382885 -0.042721 1.66611905 0 0 Z " fill="#1A1B1C" transform="translate(8,65)"/>
<path d="M0 0 C1.125 3.75 1.125 3.75 0 6 C1.4540625 5.9690625 1.4540625 5.9690625 2.9375 5.9375 C6 6 6 6 7 7 C6.96219927 8.64869317 6.84529698 10.29594032 6.6875 11.9375 C6.56955078 13.28134766 6.56955078 13.28134766 6.44921875 14.65234375 C6 17 6 17 4 19 C3.01 19 2.02 19 1 19 C1.495 14.545 1.495 14.545 2 10 C0.68 10 -0.64 10 -2 10 C-2.17942163 6.05272412 -2.09350689 3.4019487 0 0 Z " fill="#171718" transform="translate(94,14)"/>
<path d="M0 0 C2.33294775 -0.04241723 4.66702567 -0.04092937 7 0 C8 1 8 1 8.125 3.5 C8 6 8 6 7 7 C5.00041636 7.04080783 2.99954746 7.04254356 1 7 C0.67 7.99 0.34 8.98 0 10 C-1.32 8.68 -2.64 7.36 -4 6 C-3.67 5.34 -3.34 4.68 -3 4 C-2.34 4.33 -1.68 4.66 -1 5 C-0.67 3.35 -0.34 1.7 0 0 Z " fill="#4B4E52" transform="translate(138,51)"/>
<path d="M0 0 C0.99 0.66 1.98 1.32 3 2 C3.29296875 4.3828125 3.29296875 4.3828125 3.1875 7.125 C3.16042969 8.03507812 3.13335937 8.94515625 3.10546875 9.8828125 C3.07066406 10.58148438 3.03585938 11.28015625 3 12 C1.02 12.33 -0.96 12.66 -3 13 C-3.33 9.37 -3.66 5.74 -4 2 C-2.68 2 -1.36 2 0 2 C0 1.34 0 0.68 0 0 Z " fill="#4F5359" transform="translate(158,82)"/>
<path d="M0 0 C4.875 0.875 4.875 0.875 6 2 C6.04092937 4.33297433 6.04241723 6.66705225 6 9 C4.35 9 2.7 9 1 9 C0.67 9.66 0.34 10.32 0 11 C-1.98 9.35 -3.96 7.7 -6 6 C-5.67 5.01 -5.34 4.02 -5 3 C-2.69 3.33 -0.38 3.66 2 4 C2.33 4.99 2.66 5.98 3 7 C3.66 7.33 4.32 7.66 5 8 C3.73053486 3.17557816 3.73053486 3.17557816 0 0 Z " fill="#A6B0C1" transform="translate(118,18)"/>
<path d="M0 0 C0.99 0.33 1.98 0.66 3 1 C3.144375 1.639375 3.28875 2.27875 3.4375 2.9375 C3.80104993 5.20311706 3.80104993 5.20311706 6.0625 6.25 C6.701875 6.4975 7.34125 6.745 8 7 C5.30807339 10.32532111 1.93453485 11.52454943 -2 13 C-2.99 13 -3.98 13 -5 13 C-5 11.68 -5 10.36 -5 9 C-3.02 8.67 -1.04 8.34 1 8 C1.08226668 4.95613276 0.97608217 2.92824652 0 0 Z " fill="#151516" transform="translate(144,49)"/>
<path d="M0 0 C1.98 0 3.96 0 6 0 C7.125 3.75 7.125 3.75 6 6 C5.34 6 4.68 6 4 6 C4.26676204 7.98491642 4.26676204 7.98491642 5 10 C5.99 10.33 6.98 10.66 8 11 C8 11.33 8 11.66 8 12 C6.35 12 4.7 12 3 12 C2.34 10.68 1.68 9.36 1 8 C1.66 8 2.32 8 3 8 C2.319375 7.236875 1.63875 6.47375 0.9375 5.6875 C0.298125 4.800625 -0.34125 3.91375 -1 3 C-0.67 2.01 -0.34 1.02 0 0 Z " fill="#BFCDE2" transform="translate(147,68)"/>
<path d="M0 0 C1.65 0 3.3 0 5 0 C5.66 1.98 6.32 3.96 7 6 C9.97 6.495 9.97 6.495 13 7 C13 7.66 13 8.32 13 9 C5.8605042 9.48403361 5.8605042 9.48403361 2 7.3125 C0 5 0 5 -0.3125 2.25 C-0.209375 1.5075 -0.10625 0.765 0 0 Z " fill="#26282A" transform="translate(102,28)"/>
<path d="M0 0 C1.65 0.33 3.3 0.66 5 1 C6.125 5.75 6.125 5.75 5 8 C3.02 8 1.04 8 -1 8 C-1.93065133 5.39417629 -2.14917407 4.35801776 -1.0625 1.75 C-0.711875 1.1725 -0.36125 0.595 0 0 Z " fill="#C0D2FF" transform="translate(132,121)"/>
<path d="M0 0 C1.32 0 2.64 0 4 0 C5.35439668 2.70879335 5.06501451 5.00933268 5 8 C3.02 8 1.04 8 -1 8 C-1.625 5.125 -1.625 5.125 -2 2 C-1.34 1.34 -0.68 0.68 0 0 Z " fill="#C2D4FF" transform="translate(67,101)"/>
<path d="M0 0 C2.475 0.99 2.475 0.99 5 2 C5 2.66 5 3.32 5 4 C6.32 4.33 7.64 4.66 9 5 C9 6.65 9 8.3 9 10 C4.32894208 8.44298069 0.91294315 5.91552627 -3 3 C-2.01 2.67 -1.02 2.34 0 2 C0 1.34 0 0.68 0 0 Z " fill="#2C2D30" transform="translate(14,85)"/>
<path d="M0 0 C1.4540625 0.0309375 1.4540625 0.0309375 2.9375 0.0625 C3.5625 2.4375 3.5625 2.4375 3.9375 5.0625 C3.2775 5.7225 2.6175 6.3825 1.9375 7.0625 C-0.6875 6.6875 -0.6875 6.6875 -3.0625 6.0625 C-3.44468767 4.40635343 -3.77645102 2.73792976 -4.0625 1.0625 C-3.0625 0.0625 -3.0625 0.0625 0 0 Z " fill="#DCCAE0" transform="translate(92.0625,124.9375)"/>
<path d="M0 0 C0.33 0 0.66 0 1 0 C1 1.65 1 3.3 1 5 C1.763125 4.67 2.52625 4.34 3.3125 4 C6 3 6 3 9 3 C8.67 4.32 8.34 5.64 8 7 C6.68 7.33 5.36 7.66 4 8 C4 8.66 4 9.32 4 10 C2.02 10 0.04 10 -2 10 C-2 9.34 -2 8.68 -2 8 C-1.01 8 -0.02 8 1 8 C0.67 7.34 0.34 6.68 0 6 C-0.039992 4.00039988 -0.04346799 1.99952758 0 0 Z " fill="#2D3033" transform="translate(73,24)"/>
<path d="M0 0 C-0.875 3.875 -0.875 3.875 -2 5 C-4.5 5.125 -4.5 5.125 -7 5 C-8 4 -8 4 -8.0625 1.4375 C-8.041875 0.633125 -8.02125 -0.17125 -8 -1 C-4.37673261 -2.2077558 -3.35853631 -1.54311128 0 0 Z " fill="#DAD0E6" transform="translate(76,56)"/>
<path d="M0 0 C0.0825 0.5775 0.165 1.155 0.25 1.75 C1.20531013 4.6159304 2.78469173 5.9990764 5 8 C4.34 8 3.68 8 3 8 C2.67 8.66 2.34 9.32 2 10 C2 9.34 2 8.68 2 8 C1.443125 7.773125 0.88625 7.54625 0.3125 7.3125 C-2.63246684 5.64103234 -4.68156544 3.44723648 -7 1 C-4.53721199 -0.231394 -2.7204945 -0.07159196 0 0 Z " fill="#27282A" transform="translate(17,70)"/>
<path d="M0 0 C2.52259061 1.97420135 2.9929808 2.96745642 3.6875 6.1875 C3.790625 7.115625 3.89375 8.04375 4 9 C2.02 9.99 2.02 9.99 0 11 C-0.68707555 8.50935112 -1 6.62113708 -1 4 C-3.97 3.505 -3.97 3.505 -7 3 C-7 2.67 -7 2.34 -7 2 C-4.69 2 -2.38 2 0 2 C0 1.34 0 0.68 0 0 Z " fill="#4F5257" transform="translate(154,65)"/>
<path d="M0 0 C1.98 0.99 3.96 1.98 6 3 C6 4.32 6 5.64 6 7 C3.69 7 1.38 7 -1 7 C-1.625 4.625 -1.625 4.625 -2 2 C-1.34 1.34 -0.68 0.68 0 0 Z " fill="#B6C4D8" transform="translate(109,27)"/>
<path d="M0 0 C0.99 0 1.98 0 3 0 C2.39958891 3.36230209 1.52322276 5.64499209 -1 8 C-4.6875 8.25 -4.6875 8.25 -8 8 C-7.25 6.0625 -7.25 6.0625 -6 4 C-4.67696283 3.6278958 -3.34262065 3.29369827 -2 3 C-1.34 2.01 -0.68 1.02 0 0 Z " fill="#404347" transform="translate(63,31)"/>
<path d="M0 0 C0.7425 0.2475 1.485 0.495 2.25 0.75 C1.92 2.07 1.59 3.39 1.25 4.75 C-0.40614657 5.13218767 -2.07457024 5.46395102 -3.75 5.75 C-4.08 5.42 -4.41 5.09 -4.75 4.75 C-5.08 6.73 -5.41 8.71 -5.75 10.75 C-6.08 10.75 -6.41 10.75 -6.75 10.75 C-7.23337596 4.46611253 -7.23337596 4.46611253 -5.0625 1.25 C-2.75 -0.25 -2.75 -0.25 0 0 Z " fill="#646971" transform="translate(58.75,25.25)"/>
<path d="M0 0 C1.2065625 0.0309375 1.2065625 0.0309375 2.4375 0.0625 C2.7675 1.7125 3.0975 3.3625 3.4375 5.0625 C1.1275 5.3925 -1.1825 5.7225 -3.5625 6.0625 C-3.605221 4.39638095 -3.60313832 2.72867115 -3.5625 1.0625 C-2.5625 0.0625 -2.5625 0.0625 0 0 Z " fill="#B8C5D9" transform="translate(128.5625,36.9375)"/>
<path d="M0 0 C1.32 0.33 2.64 0.66 4 1 C4 2.32 4 3.64 4 5 C0.04 4.67 -3.92 4.34 -8 4 C-7.67 3.01 -7.34 2.02 -7 1 C-4.69 1.33 -2.38 1.66 0 2 C0 1.34 0 0.68 0 0 Z " fill="#080809" transform="translate(20,78)"/>
<path d="M0 0 C0.99 0 1.98 0 3 0 C3.33 2.97 3.66 5.94 4 9 C2.35 8.67 0.7 8.34 -1 8 C-1.04241723 5.66705225 -1.04092937 3.33297433 -1 1 C-0.67 0.67 -0.34 0.34 0 0 Z " fill="#1C1D1F" transform="translate(70,23)"/>
<path d="M0 0 C2.31 0 4.62 0 7 0 C7.33 1.32 7.66 2.64 8 4 C3.545 4.495 3.545 4.495 -1 5 C-0.67 3.35 -0.34 1.7 0 0 Z " fill="#111112" transform="translate(150,80)"/>
<path d="M0 0 C-0.75 5.75 -0.75 5.75 -3 8 C-5.125 7.625 -5.125 7.625 -7 7 C-7 6.01 -7 5.02 -7 4 C-2.65714286 0 -2.65714286 0 0 0 Z " fill="#292B2D" transform="translate(119,39)"/>
<path d="M0 0 C0.84604751 2.94102229 1.13522521 5.56766268 1.125 8.625 C1.12757812 9.40101562 1.13015625 10.17703125 1.1328125 10.9765625 C1 13 1 13 0 15 C-0.99 15 -1.98 15 -3 15 C-2.22095672 4.44191344 -2.22095672 4.44191344 0 0 Z " fill="#2C2E30" transform="translate(89,17)"/>
<path d="M0 0 C1.32 0.33 2.64 0.66 4 1 C4 4.3 4 7.6 4 11 C2.68 10.34 1.36 9.68 0 9 C0.66 9 1.32 9 2 9 C1.67 8.443125 1.34 7.88625 1 7.3125 C-0.1309601 4.69715478 -0.15662974 2.8193354 0 0 Z " fill="#A1AAB8" transform="translate(151,84)"/>
<path d="M0 0 C1.98 0 3.96 0 6 0 C6.33 1.65 6.66 3.3 7 5 C4.69 5 2.38 5 0 5 C0 3.35 0 1.7 0 0 Z " fill="#BECCE3" transform="translate(138,51)"/>
<path d="M0 0 C0.66 0.33 1.32 0.66 2 1 C2 3.31 2 5.62 2 8 C-0.95664519 9.4783226 -3.74229737 9.06032783 -7 9 C-7.33 8.34 -7.66 7.68 -8 7 C-5.36 6.67 -2.72 6.34 0 6 C0 4.02 0 2.04 0 0 Z " fill="#09090A" transform="translate(133,37)"/>
<path d="M0 0 C0.66 0.33 1.32 0.66 2 1 C1.34 1.66 0.68 2.32 0 3 C2.475 3.99 2.475 3.99 5 5 C2.11604263 6.44197868 -0.82430479 6.58833581 -4 7 C-4 6.34 -4 5.68 -4 5 C-5.32 5.33 -6.64 5.66 -8 6 C-5.54080489 3.3651481 -3.42227589 1.25483449 0 0 Z " fill="#E1BFD1" transform="translate(91,114)"/>
<path d="M0 0 C6.75 -0.125 6.75 -0.125 9 1 C9 1.99 9 2.98 9 4 C5.7 3.67 2.4 3.34 -1 3 C-0.67 2.01 -0.34 1.02 0 0 Z " fill="#0A0A0B" transform="translate(18,68)"/>
<path d="M0 0 C0.33 0 0.66 0 1 0 C1 1.98 1 3.96 1 6 C1.61875 6.0825 2.2375 6.165 2.875 6.25 C5 7 5 7 6.25 9.0625 C6.4975 9.701875 6.745 10.34125 7 11 C4.03824877 10.38722388 2.61941217 9.74627478 0 8 C-1.33333333 2.66666667 -1.33333333 2.66666667 0 0 Z " fill="#43464A" transform="translate(143,65)"/>
<path d="M0 0 C2.0625 2.1875 2.0625 2.1875 4 5 C3.75 7.8125 3.75 7.8125 3 10 C0.52098038 8.05989769 0.00329768 7.01374033 -0.75 3.875 C-0.8325 2.92625 -0.915 1.9775 -1 1 C-0.67 0.67 -0.34 0.34 0 0 Z " fill="#2B2D2E" transform="translate(26,48)"/>
<path d="M0 0 C2 2 2 2 2.5 5.0625 C2.665 6.031875 2.83 7.00125 3 8 C3.66 8.33 4.32 8.66 5 9 C3.33388095 9.042721 1.66617115 9.04063832 0 9 C-1 8 -1 8 -1.125 4.5 C-1 1 -1 1 0 0 Z " fill="#0D0D0E" transform="translate(54,29)"/>
<path d="M0 0 C0.33 0 0.66 0 1 0 C1 1.65 1 3.3 1 5 C0.01 5.33 -0.98 5.66 -2 6 C-2.99 7.485 -2.99 7.485 -4 9 C-5.32 9 -6.64 9 -8 9 C-8 8.01 -8 7.02 -8 6 C-6.865625 5.566875 -5.73125 5.13375 -4.5625 4.6875 C-2.7990625 3.8521875 -2.7990625 3.8521875 -1 3 C-0.67 2.01 -0.34 1.02 0 0 Z " fill="#A8B1C0" transform="translate(65,26)"/>
<path d="M0 0 C0.185625 0.8353125 0.185625 0.8353125 0.375 1.6875 C0.955376 4.07700458 0.955376 4.07700458 2.125 6.5 C3.07733681 9.22096232 2.98315966 10.34546892 2 13 C2 12.01 2 11.02 2 10 C0.68 10 -0.64 10 -2 10 C-2.17942163 6.05272412 -2.09350689 3.4019487 0 0 Z " fill="#595C61" transform="translate(94,14)"/>
<path d="M0 0 C3.3 0.99 6.6 1.98 10 3 C9.34 3.66 8.68 4.32 8 5 C4.375 4.625 4.375 4.625 1 4 C0.67 2.68 0.34 1.36 0 0 Z " fill="#0D0D0D" transform="translate(20,58)"/>
<path d="M0 0 C0.66 1.32 1.32 2.64 2 4 C1.34 4.66 0.68 5.32 0 6 C-3.58588324 5.61233695 -6.69987921 4.41433748 -10 3 C-6.86314002 1.95438001 -4.27634061 2 -1 2 C-0.67 1.34 -0.34 0.68 0 0 Z " fill="#696E76" transform="translate(30,55)"/>
<path d="M0 0 C0.33 0 0.66 0 1 0 C1 1.65 1 3.3 1 5 C2.65 5 4.3 5 6 5 C4.68 5.99 3.36 6.98 2 8 C0.0625 7.1875 0.0625 7.1875 -2 6 C-2.33 5.01 -2.66 4.02 -3 3 C-2.34 3 -1.68 3 -1 3 C-0.67 2.01 -0.34 1.02 0 0 Z " fill="#373A3D" transform="translate(124,38)"/>
<path d="M0 0 C0.66 0 1.32 0 2 0 C2 0.66 2 1.32 2 2 C3.32 2.33 4.64 2.66 6 3 C5.67 3.66 5.34 4.32 5 5 C3.02 5 1.04 5 -1 5 C-0.67 3.35 -0.34 1.7 0 0 Z " fill="#424448" transform="translate(33,30)"/>
<path d="M0 0 C0.33 0 0.66 0 1 0 C1 1.65 1 3.3 1 5 C1.763125 4.67 2.52625 4.34 3.3125 4 C6 3 6 3 9 3 C8.67 4.32 8.34 5.64 8 7 C7.34 6.67 6.68 6.34 6 6 C4.00039988 5.960008 1.99952758 5.95653201 0 6 C0 4.02 0 2.04 0 0 Z " fill="#686D75" transform="translate(73,24)"/>
<path d="M0 0 C1.32 0 2.64 0 4 0 C3.38722388 2.96175123 2.74627478 4.38058783 1 7 C0.34 6.34 -0.32 5.68 -1 5 C-0.625 2.375 -0.625 2.375 0 0 Z " fill="#2A2B2D" transform="translate(92,10)"/>
<path d="M0 0 C0.625 1.875 0.625 1.875 1 4 C0.34 4.66 -0.32 5.32 -1 6 C-1.99 6 -2.98 6 -4 6 C-4 4.68 -4 3.36 -4 2 C-2.68 1.34 -1.36 0.68 0 0 Z " fill="#35383B" transform="translate(99,27)"/>
<path d="M0 0 C-0.33 0.99 -0.66 1.98 -1 3 C-1.66 3 -2.32 3 -3 3 C-3.33 3.66 -3.66 4.32 -4 5 C-4.99 3.68 -5.98 2.36 -7 1 C-4.53721199 -0.231394 -2.7204945 -0.07159196 0 0 Z " fill="#4C4F54" transform="translate(17,70)"/>
<path d="M0 0 C0.66 0 1.32 0 2 0 C2.33 1.98 2.66 3.96 3 6 C2.01 6.66 1.02 7.32 0 8 C0 5.36 0 2.72 0 0 Z " fill="#1C1D1F" transform="translate(155,68)"/>
<path d="M0 0 C0.66 0.33 1.32 0.66 2 1 C2 1.66 2 2.32 2 3 C2.99 3.33 3.98 3.66 5 4 C5 4.33 5 4.66 5 5 C3.35 5 1.7 5 0 5 C-0.66 3.68 -1.32 2.36 -2 1 C-1.34 0.67 -0.68 0.34 0 0 Z " fill="#A6B0BE" transform="translate(150,75)"/>
<path d="M0 0 C0 1.65 0 3.3 0 5 C-1.65 4.67 -3.3 4.34 -5 4 C-5 3.34 -5 2.68 -5 2 C-2 0 -2 0 0 0 Z " fill="#030404" transform="translate(40,28)"/>
<path d="M0 0 C0.99 0.33 1.98 0.66 3 1 C3 2.65 3 4.3 3 6 C2.01 5.67 1.02 5.34 0 5 C-0.75 3 -0.75 3 -1 1 C-0.67 0.67 -0.34 0.34 0 0 Z " fill="#0C0D0D" transform="translate(120,20)"/>
</svg>
